<svg xmlns="http://www.w3.org/2000/svg" width="371.913" height="71.951" viewBox="0 0 371.913 71.951">
  <g id="Group_40" data-name="Group 40" transform="translate(-41.087 -25.049)">
    <g id="illust58-7382-01_Converted_" data-name="illust58-7382-01 [Converted]" transform="translate(41.087 25.049)">
      <g id="Layer_2" data-name="Layer 2" transform="translate(0 0)">
        <path id="Path_210" data-name="Path 210" d="M261.97,157.48v-4.456h-4.561c-.238-2.371-1.869-4.222-3.836-4.222h-8.02v-1.894c0-5.551-2.878-10.067-6.416-10.067H218c-3.537,0-6.416,4.516-6.416,10.067v1.9h-7.643c-1.967,0-3.6,1.851-3.836,4.222H196.68v4.456Zm-46.609-10.573c0-2.285,1.185-4.145,2.641-4.145h21.134c1.457,0,2.642,1.859,2.642,4.145v1.9H215.361Z" transform="translate(-196.68 -136.84)" fill="#f2f2f2"/>
        <path id="Path_211" data-name="Path 211" d="M196.68,400.48V402.5h.184v1.65h3.116l7.8,43.622h42.5l8.187-43.622h3.509V400.48Zm23.574,38.039a3.405,3.405,0,0,1-3.407,3.383h-.284a3.4,3.4,0,0,1-3.406-3.383V408.626a3.4,3.4,0,0,1,3.406-3.383h.284a3.405,3.405,0,0,1,3.407,3.383Zm12.489,0a3.4,3.4,0,0,1-3.406,3.383h-.28a3.405,3.405,0,0,1-3.407-3.383V408.626a3.405,3.405,0,0,1,3.407-3.383h.284a3.4,3.4,0,0,1,3.406,3.383Zm12.774,0a3.405,3.405,0,0,1-3.407,3.383h-.284a3.4,3.4,0,0,1-3.406-3.383V408.626a3.4,3.4,0,0,1,3.406-3.383h.284a3.405,3.405,0,0,1,3.407,3.383Z" transform="translate(-196.68 -377.025)" fill="#f2f2f2"/>
      </g>
    </g>
    <text id="ENVICLEAN" transform="translate(134 84)" fill="#f2f2f2" font-size="52" font-family="Roboto-Bold, Roboto" font-weight="700"><tspan x="0" y="0">ENVICLEAN</tspan></text>
  </g>
</svg>
