<svg xmlns="http://www.w3.org/2000/svg" viewBox="0 0 1948.63 852.92"><defs><style>.cls-1{isolation:isolate;}.cls-2{fill:#1a1a1a;}.cls-3{fill:#1e5903;}.cls-4,.cls-5,.cls-6{fill:#60a62e;}.cls-5,.cls-7{opacity:0.49;}.cls-10,.cls-21,.cls-25,.cls-40,.cls-42,.cls-5,.cls-7{mix-blend-mode:multiply;}.cls-14,.cls-35,.cls-6{opacity:0.5;}.cls-14,.cls-17,.cls-6{mix-blend-mode:screen;}.cls-8{fill:#96cd61;}.cls-9{fill:#5cb30b;}.cls-10,.cls-11,.cls-14{fill:#8dc955;}.cls-10,.cls-49{opacity:0.2;}.cls-12{fill:#2b2b2b;}.cls-13{fill:#799cd1;}.cls-15,.cls-16,.cls-49{fill:#fff;}.cls-15,.cls-17,.cls-21,.cls-40,.cls-42{opacity:0.3;}.cls-17{fill:#5c87c8;}.cls-18{fill:#ccc;}.cls-19,.cls-21,.cls-45{fill:#412085;}.cls-19,.cls-50{opacity:0.6;}.cls-20{fill:#212121;}.cls-22{fill:#5f4499;}.cls-23{fill:#919191;}.cls-24,.cls-25{fill:#3d3d3d;}.cls-26{fill:#f6c09b;}.cls-27{fill:#262626;}.cls-28{fill:#e7945a;}.cls-29{fill:#f2f7ff;}.cls-30{fill:#575757;}.cls-31,.cls-40{fill:#e38e54;}.cls-32{fill:#1c1c1c;}.cls-33{fill:#d1dae8;}.cls-34{fill:#0a0a0a;}.cls-35{fill:#6f56a2;}.cls-36{fill:#2659a6;}.cls-37{fill:#366aba;}.cls-38{fill:#424242;}.cls-39{fill:#5387d9;}.cls-41{fill:#696969;}.cls-42{fill:#75be31;}.cls-43{fill:#54a607;}.cls-44{fill:#0f0f0f;}.cls-46{fill:#5b37a3;}.cls-47{fill:#a0ecff;}.cls-48{fill:#154001;}</style></defs><g class="cls-1"><g id="Layer_2" data-name="Layer 2"><g id="Layer_1-2" data-name="Layer 1"><path class="cls-2" d="M216.25,218.09H679.67c40.26,0,72.89,29.48,72.89,65.85V528.15H929.88V283.94c0-36.37,32.63-65.85,72.89-65.85H1453c40.26,0,72.89,29.48,72.89,65.85V602.76c0,36.37-32.63,65.85-72.89,65.85H1002.77c-33.08,0-61-19.91-69.9-47.18H749.57c-8.91,27.27-36.82,47.18-69.9,47.18H216.25c-40.25,0-72.89-29.48-72.89-65.85V283.94C143.36,247.57,176,218.09,216.25,218.09Z"/><polygon class="cls-3" points="411.57 554.63 1310.72 554.63 1310.72 23.64 515.52 23.64 411.57 150.23 411.57 211.47 411.57 554.63"/><rect class="cls-4" x="1310.72" y="11.29" width="39.85" height="543.34" transform="translate(2661.29 565.92) rotate(180)"/><polygon class="cls-5" points="1295.99 23.64 1295.99 537.3 1075.96 537.3 1075.96 23.64 1061.23 23.64 1061.23 537.3 841.19 537.3 841.19 23.64 838.93 23.64 826.47 23.64 824.21 23.64 824.21 537.3 604.17 537.3 604.17 23.64 589.44 23.64 589.44 537.3 400.02 537.3 400.02 548.85 589.44 548.85 589.44 554.63 604.17 554.63 604.17 548.85 824.21 548.85 824.21 554.63 826.47 554.63 838.93 554.63 841.19 554.63 841.19 548.85 1061.23 548.85 1061.23 554.63 1075.96 554.63 1075.96 548.85 1295.99 548.85 1295.99 554.63 1310.72 554.63 1310.72 548.85 1310.72 537.3 1310.72 23.64 1295.99 23.64"/><rect class="cls-4" x="1075.96" y="11.29" width="39.85" height="543.34" transform="translate(2191.76 565.92) rotate(180)"/><rect class="cls-4" x="603.33" y="11.29" width="39.85" height="543.34" transform="translate(1246.52 565.92) rotate(180)"/><rect class="cls-4" x="838.93" y="11.29" width="39.85" height="543.34" transform="translate(1717.72 565.92) rotate(180)"/><polygon class="cls-3" points="361.18 593.92 122.52 593.92 83.53 322.39 248.33 73.9 515.52 23.64 464.16 402.29 361.18 593.92"/><polygon class="cls-5" points="532.07 23.64 515.52 23.64 355.4 581.64 370.13 585.4 511.48 144.74 532.07 23.64"/><polygon class="cls-4" points="370.13 584.38 408.82 593.92 577.57 9.53 538.88 0 370.13 584.38"/><rect class="cls-4" x="90.9" y="548.85" width="1269.78" height="45.06" transform="translate(1451.57 1142.77) rotate(180)"/><rect class="cls-6" x="90.9" y="548.85" width="1269.78" height="11.55"/><g class="cls-7"><path class="cls-4" d="M122.68,331l-.31-2.45L267.14,103,474.2,70.18,345.09,521H145.93ZM455.19,87,275.32,115.47,136.52,331.8,158,507.37h176.8Z"/></g><path d="M1014.22,627.89h257.54a12.73,12.73,0,0,1,12.73,12.73v55.79a12.72,12.72,0,0,1-12.72,12.72H1014.22a12.72,12.72,0,0,1-12.72-12.72V640.62A12.73,12.73,0,0,1,1014.22,627.89Z" transform="translate(2285.97 1337.02) rotate(180)"/><path class="cls-8" d="M1244.18,593.92h5.95a1.36,1.36,0,0,1,1.36,1.36V711.95a0,0,0,0,1,0,0h-8.66a0,0,0,0,1,0,0V595.27A1.36,1.36,0,0,1,1244.18,593.92Z" transform="translate(2494.31 1305.87) rotate(180)"/><path class="cls-8" d="M1039.16,593.92h5.95a1.36,1.36,0,0,1,1.36,1.36V711.95a0,0,0,0,1,0,0h-8.66a0,0,0,0,1,0,0V595.27A1.36,1.36,0,0,1,1039.16,593.92Z" transform="translate(2084.27 1305.87) rotate(180)"/><rect class="cls-2" x="48.63" y="593.92" width="105.98" height="17.22" rx="2.7" transform="translate(203.23 1205.05) rotate(180)"/><path class="cls-9" d="M1779.61,202.5H1452.52a58.91,58.91,0,0,0-58.89,58.92v374.4h523.81V480.43l-91.23-245.52A49.72,49.72,0,0,0,1779.61,202.5Z"/><path class="cls-10" d="M1492.2,275.06S1547,572.65,1829.84,560.41l1.08,45.82-1.08,11-4.55,7.79-5.85,5.85-8.77,3.93-4.22.51-20,.46h-70.61s-85.54-.13-86,.09-31.95,0-31.95,0l-106.66-68.68Z"/><rect class="cls-11" x="1917.44" y="480.43" width="12.13" height="103.62" transform="translate(3847.01 1064.49) rotate(180)"/><path class="cls-12" d="M1490.26,608.91V275.06a27.91,27.91,0,0,1,27.87-27.89h223a28,28,0,0,1,26.11,18.13L1830,433.57a27.76,27.76,0,0,1,1.76,9.76V608.91a27.92,27.92,0,0,1-27.88,27.89H1518.13A27.91,27.91,0,0,1,1490.26,608.91Zm27.87-359.79a26,26,0,0,0-25.93,25.94V608.91a26,26,0,0,0,25.93,25.94h285.78a26,26,0,0,0,25.93-25.94V443.33a25.76,25.76,0,0,0-1.64-9.07L1765.4,266a26.05,26.05,0,0,0-24.29-16.87Z"/><path class="cls-13" d="M1933.37,487.94h8.33a0,0,0,0,1,0,0v88.61a0,0,0,0,1,0,0h-8.33a3.8,3.8,0,0,1-3.8-3.8v-81A3.8,3.8,0,0,1,1933.37,487.94Z" transform="translate(3871.27 1064.49) rotate(180)"/><path class="cls-12" d="M1802.91,418.37l-52-147a15.06,15.06,0,0,0-14.2-10H1521.89a15.07,15.07,0,0,0-15.07,15.07v147a15.07,15.07,0,0,0,15.07,15.07h266.82A15.07,15.07,0,0,0,1802.91,418.37Z"/><path class="cls-9" d="M1948.63,672.48h0c0,20.24-13.89,36.65-31,36.65h-524V635.82h524C1934.74,635.82,1948.63,652.23,1948.63,672.48Z"/><path class="cls-12" d="M1901.85,438.47h-20.21l-58.79-158.13a14.08,14.08,0,0,1,13.19-19h0Z"/><rect class="cls-11" x="1583.63" y="252.39" width="10.39" height="195.05" transform="translate(3177.66 699.83) rotate(180)"/><path class="cls-14" d="M1917.6,635.82c17.14,0,31,16.41,31,36.66h0a43,43,0,0,1-.25,4.43c-1.86-18.14-14.92-32.21-30.78-32.21h-524v-8.88Z"/><rect class="cls-2" x="1527.61" y="455.82" width="81.43" height="10.89" rx="1.71" transform="translate(3136.66 922.53) rotate(180)"/><polygon class="cls-15" points="1698.73 261.36 1759.7 438.47 1709.8 438.47 1646.91 261.36 1698.73 261.36"/><polygon class="cls-15" points="1627.4 261.36 1690.81 438.47 1671.13 438.47 1611.55 261.36 1627.4 261.36"/><path class="cls-2" d="M962.63,709.12H667.06s-12-21.44-7.12-22.3,30.89-64.46,30.89-64.46l61.51-45.81,67.57-16.14,61.51,16.14,46,33.14,28.54,35.53,14.72,52.86Z"/><path d="M686.13,712A128.72,128.72,0,1,0,814.84,583.19,128.73,128.73,0,0,0,686.13,712Z"/><ellipse class="cls-16" cx="814.84" cy="711.95" rx="89.59" ry="89.56" transform="matrix(0, -1, 1, 0, 99.46, 1523.78)"/><path class="cls-4" d="M755,712A59.9,59.9,0,1,0,814.84,652,59.9,59.9,0,0,0,755,712Z"/><path class="cls-2" d="M604.26,709.12H308.69s-12-21.44-7.12-22.3,30.9-64.46,30.9-64.46L394,576.55l67.57-16.14,61.51,16.14,46,33.14,28.53,35.53,14.72,52.86Z"/><path d="M327.76,712A128.72,128.72,0,1,0,456.47,583.19,128.74,128.74,0,0,0,327.76,712Z"/><ellipse class="cls-16" cx="456.47" cy="711.95" rx="89.59" ry="89.56" transform="translate(-257.38 1165.44) rotate(-89.76)"/><path class="cls-4" d="M396.58,712A59.9,59.9,0,1,0,456.47,652,59.9,59.9,0,0,0,396.58,712Z"/><path class="cls-2" d="M1696.32,709.12H1400.75s-12-21.44-7.12-22.3,30.9-64.46,30.9-64.46l61.5-45.81,67.57-16.14,61.51,16.14,46,33.14,28.53,35.53,14.73,52.86Z"/><path d="M1419.82,712a128.72,128.72,0,1,0,128.72-128.76A128.74,128.74,0,0,0,1419.82,712Z"/><ellipse class="cls-16" cx="1548.54" cy="711.95" rx="89.59" ry="89.56" transform="translate(830.15 2257.51) rotate(-89.76)"/><path class="cls-4" d="M1488.64,712a59.9,59.9,0,1,0,59.9-59.91A59.9,59.9,0,0,0,1488.64,712Z"/><path class="cls-17" d="M1515.46,662a59.89,59.89,0,0,0,83,83,59.9,59.9,0,1,1-83-83Z"/><path class="cls-4" d="M1703,715.58a6.74,6.74,0,0,1-6.72-6.46c-3.39-78.61-68.38-141.52-147.78-141.52s-144.4,62.91-147.79,141.52a6.74,6.74,0,0,1-6.72,6.46h0a6.76,6.76,0,0,1-6.75-7c3.7-85.78,74.61-154.42,161.26-154.42s157.55,68.64,161.25,154.42a6.76,6.76,0,0,1-6.75,7Z"/><path class="cls-18" d="M793.59,405.37s-19.33,23-64.86,27-11.44,28.1-11.44,28.1,54.87,7.9,74-5S793.59,405.37,793.59,405.37Z"/><path class="cls-19" d="M645.08,415.52l-.05-.36A13.08,13.08,0,0,1,653.47,401a2.15,2.15,0,0,0,1.38-2.34L654,393l5.72-.84.82,5.64a2.15,2.15,0,0,0,2,1.85,13.09,13.09,0,0,1,12.14,11.17l.06.36a2.13,2.13,0,0,1-1.58,2.37l2.87,19.6a2.63,2.63,0,0,1,2.25,2.23l4.15,28.3a8.46,8.46,0,0,1-7.14,9.59l-6.47.95-6.48,1a8.45,8.45,0,0,1-9.58-7.14l-4.15-28.3a2.67,2.67,0,0,1,1.51-2.79l-2.86-19.6A2.12,2.12,0,0,1,645.08,415.52Z"/><rect class="cls-20" x="652.81" y="392.2" width="8.65" height="3.92" rx="0.84" transform="translate(1364.5 688.82) rotate(171.66)"/><path class="cls-16" d="M648.46,414.74a.92.92,0,0,0,.79-.91,11.12,11.12,0,0,1,4.8-9.31.92.92,0,0,0-1-1.56,13,13,0,0,0-5.68,10.88.92.92,0,0,0,.93.91Z"/><path class="cls-21" d="M650.13,436.93l-2.86-19.6,13-1.9s-9.59,2.64-9.65,6.91-1.53,15.08,12.56,13.19c0,0-11.4,2.7-11.3,8.72s.2,32.08,17,30l-6.48,1a8.45,8.45,0,0,1-9.58-7.14l-4.15-28.3A2.67,2.67,0,0,1,650.13,436.93Z"/><path class="cls-19" d="M710.42,410.94l.35-.1A13.09,13.09,0,0,1,726,417.26a2.16,2.16,0,0,0,2.51,1l5.47-1.6,1.61,5.55-5.47,1.59a2.18,2.18,0,0,0-1.56,2.23,13.1,13.1,0,0,1-9.38,13.57l-.35.1a2.13,2.13,0,0,1-2.56-1.23l-19,5.54a2.63,2.63,0,0,1-1.91,2.53l-27.45,8a8.44,8.44,0,0,1-10.47-5.75l-1.83-6.28-1.84-6.29a8.46,8.46,0,0,1,5.75-10.48l27.45-8a2.65,2.65,0,0,1,3,1.11l19-5.54A2.14,2.14,0,0,1,710.42,410.94Z"/><rect class="cls-20" x="728.9" y="417.99" width="8.65" height="3.92" rx="0.84" transform="matrix(-0.28, -0.96, 0.96, -0.28, 535.12, 1241.37)"/><path class="cls-16" d="M711.65,414.19a.92.92,0,0,0,1,.65,11.12,11.12,0,0,1,9.88,3.48.92.92,0,0,0,1.42-1.17A13,13,0,0,0,712.4,413a.92.92,0,0,0-.78,1Z"/><path class="cls-21" d="M689.91,418.9l19-5.54L712.6,426s-3.94-9.14-8.18-8.61-15.13.55-11.32,14.26c0,0-4.25-10.92-10.2-10s-31.73,4.62-27.32,20.94l-1.84-6.29a8.46,8.46,0,0,1,5.75-10.48l27.45-8A2.65,2.65,0,0,1,689.91,418.9Z"/><path class="cls-19" d="M698.94,388l.29-.21a13.06,13.06,0,0,1,16.46.64,2.14,2.14,0,0,0,2.7.09l4.53-3.41,3.48,4.61-4.54,3.42a2.16,2.16,0,0,0-.66,2.62,13.06,13.06,0,0,1-3.93,16L717,412a2.11,2.11,0,0,1-2.82-.25l-15.75,11.87a2.64,2.64,0,0,1-.88,3l-22.74,17.13A8.43,8.43,0,0,1,663,442.05l-3.93-5.23-3.94-5.23a8.43,8.43,0,0,1,1.64-11.81l22.74-17.13a2.64,2.64,0,0,1,3.16,0l15.76-11.86A2.12,2.12,0,0,1,698.94,388Z"/><rect class="cls-20" x="719.07" y="386.44" width="8.65" height="3.9" rx="0.84" transform="translate(848.18 1199.92) rotate(-126.97)"/><path class="cls-16" d="M701.24,390.59a.93.93,0,0,0,1.18.26,11.1,11.1,0,0,1,10.44-.23.91.91,0,0,0,.9-1.58,12.92,12.92,0,0,0-12.23.2.93.93,0,0,0-.36,1.25A.86.86,0,0,0,701.24,390.59Z"/><path class="cls-21" d="M682.65,402.64l15.76-11.86,7.89,10.49s-6.91-7.16-10.67-5.17-13.91,5.84-5.49,17.3c0,0-7.84-8.71-13.06-5.75s-27.93,15.47-18,29.17l-3.94-5.23a8.43,8.43,0,0,1,1.64-11.81l22.74-17.13A2.64,2.64,0,0,1,682.65,402.64Z"/><path class="cls-19" d="M644.81,432.77l-.31-.18a13,13,0,0,1-5.83-15.4,2.15,2.15,0,0,0-1-2.53l-4.9-2.84,2.89-5,4.91,2.84a2.15,2.15,0,0,0,2.67-.41,13,13,0,0,1,16.25-2.62l.31.18a2.12,2.12,0,0,1,.87,2.7l17.07,9.88a2.64,2.64,0,0,1,3.14-.38l24.64,14.26a8.44,8.44,0,0,1,3.06,11.53l-3.28,5.67L702,456.13a8.42,8.42,0,0,1-11.51,3.1L665.88,445a2.64,2.64,0,0,1-1.23-2.91l-17.07-9.88A2.11,2.11,0,0,1,644.81,432.77Z"/><rect class="cls-20" x="631.3" y="408.15" width="8.65" height="3.9" rx="0.84" transform="translate(1308.85 65.17) rotate(120.04)"/><path class="cls-16" d="M646.3,429.64a.91.91,0,0,0-.22-1.18,11.09,11.09,0,0,1-4.28-9.53.91.91,0,0,0-.8-1,.93.93,0,0,0-1,.8,13,13,0,0,0,5,11.19.91.91,0,0,0,1.28-.16Z"/><path class="cls-21" d="M664.65,442.06l-17.07-9.88,6.57-11.36s-3.89,9.15-.59,11.84,10.8,10.54,18.07-1.69c0,0-5,10.61-.2,14.27s25.14,19.68,33.89,5.23L702,456.13a8.42,8.42,0,0,1-11.51,3.1L665.88,445A2.64,2.64,0,0,1,664.65,442.06Z"/><path class="cls-22" d="M701.81,455.13s14.27-32.45,14-39.21c0,0,21.42,1.59,42.85,3.44l-15.52,37.08Z"/><path class="cls-22" d="M685.4,456.86s-14.26-32.45-14-39.2c0,0-21.42,1.59-42.85,3.44l15.52,37.07Z"/><rect class="cls-23" x="625.22" y="438.21" width="131.24" height="87.62"/><rect class="cls-24" x="712.09" y="438.21" width="44.37" height="87.62"/><rect class="cls-25" x="718.1" y="453.78" width="34.29" height="4.16" rx="2.08"/><polygon class="cls-26" points="806.55 823.99 806.55 811.1 791.81 807.02 788.53 808.46 787.97 823.99 792.61 837.52 806.55 823.99"/><polygon class="cls-27" points="774.5 559.75 784.96 814.66 809.3 814.66 830.76 621.99 802.63 535.66 774.5 559.75"/><polygon class="cls-26" points="900.71 823.99 900.71 811.1 885.97 807.02 882.69 808.46 882.13 823.99 886.77 837.52 900.71 823.99"/><path class="cls-26" d="M710,492a.72.72,0,0,1-.29,1.24c-4.3,1.17-17.8,4.92-17.75,6.08,0,1.38,12.2-1.68,12.91-.61s-11.21,3.75-10.91,5.22,11.09-1.34,11.43-.77-9.71,4.37-10,5.34,10.88-1.78,11.49-1.2-6.5,5-6.19,5.71.41,1.14,19.32-4.34l7.34-2.48,4.91-5.26-3.67-7.83s-23.68-9-24.53-8.4S703.36,486.08,710,492Z"/><path class="cls-24" d="M785,560.29l95.38,254.38,23.36-1.91s-29.08-233.22-46.48-255.4S801.68,540,801.68,540Z"/><path class="cls-26" d="M795.54,409.38s11.78,7,21,0h0l-2.16-17.05-18.27-3.76-.53,20.81Z"/><path class="cls-28" d="M795.79,399.69l.28-11.12,18.53,5.76.52,4.17C811,400,803.2,401.81,795.79,399.69Z"/><path class="cls-29" d="M724.68,483.44c9.34,2.23,31.31,1.12,48-.19.13-13.77.66-26.59,1.87-35.58,4.29-32,19.09-42.3,19.09-42.3a36.77,36.77,0,0,0,25-6.11c19.79.24,31.23,11,31.23,11,30.4,26.23,7.39,79.89,7.39,79.89L865.56,561c-18.83,6.43-95.83,2.56-95.83,2.56A275.07,275.07,0,0,0,772.94,518c-24.4-1.37-48.26-5.25-48.26-5.25C723.72,507.52,724.68,483.44,724.68,483.44Z"/><path class="cls-27" d="M826.31,435.67a40,40,0,0,1-11.94,28.13A51.78,51.78,0,0,1,801.85,473a72.2,72.2,0,0,1-14.49,5.82c-.63.18-1.24.4-1.88.56l-1.9.47c-1.27.3-2.54.64-3.82.92l-3.86.72-1.93.36-2,.27c-2.6.37-5.2.77-7.82,1l-3.93.36c-1.31.1-2.62.15-3.94.23a312.38,312.38,0,0,1-31.65-.19,206.09,206.09,0,0,0,31.72,1.86c10.6-.29,21.29-1.42,31.57-4.47a71.82,71.82,0,0,0,14.85-6.09A51.28,51.28,0,0,0,815.58,465a41.68,41.68,0,0,0,4.93-6.37,43.55,43.55,0,0,0,3.57-7.21,41.88,41.88,0,0,0,2-7.76A30.2,30.2,0,0,0,826.31,435.67Z"/><path class="cls-27" d="M724.68,512.77a268.16,268.16,0,0,0,35,5.34,237.5,237.5,0,0,0,35.49.63c11.81-.81,23.7-2.57,34.89-6.73a60.43,60.43,0,0,0,15.72-8.41,39.32,39.32,0,0,0,11.42-13.48,40.69,40.69,0,0,1-12,12.63,63.29,63.29,0,0,1-15.66,7.68,107.81,107.81,0,0,1-17,4.2,167.42,167.42,0,0,1-17.46,2,283.67,283.67,0,0,1-35.23-.15q-8.8-.54-17.6-1.47C736.36,514.4,730.51,513.64,724.68,512.77Z"/><path class="cls-27" d="M766.3,840.4l42.9-.12a2.4,2.4,0,0,0,2.39-2.41h0a2.39,2.39,0,0,0-2.41-2.39l-42.89.12A2.39,2.39,0,0,0,763.9,838h0A2.39,2.39,0,0,0,766.3,840.4Z"/><path class="cls-30" d="M809.36,820.89,811,834.24c.2,1.64-.72,3.14-1.93,3.15l-42,.12a3.08,3.08,0,0,1-2.75-2c-.59-1.31-.71-3.29,1.16-5.95,3.71-5.28,15.85-6.64,22-11.09a.74.74,0,0,1,.43-.14l19.34-.06C808.24,818.31,809.18,819.4,809.36,820.89Z"/><path class="cls-16" d="M790.57,826.12h0a.9.9,0,0,0,.23-1.09c-.83-1.83-3.42-6.28-8.67-5.35a.77.77,0,0,0-.45.88h0c.05.4.33.67.62.61,4.7-.81,6.9,3.11,7.58,4.64A.48.48,0,0,0,790.57,826.12Z"/><path class="cls-16" d="M786.21,827.85h0a.9.9,0,0,0,.23-1.09c-.83-1.83-3.42-6.27-8.67-5.34-.3.05-.5.45-.45.87h0c0,.4.33.67.62.62,4.7-.82,6.9,3.1,7.58,4.63A.48.48,0,0,0,786.21,827.85Z"/><path class="cls-16" d="M782.15,829.46h0a.9.9,0,0,0,.24-1.08c-.83-1.83-3.43-6.28-8.67-5.35a.76.76,0,0,0-.46.87v0c.05.4.32.66.61.61,4.7-.82,6.91,3.1,7.58,4.64A.47.47,0,0,0,782.15,829.46Z"/><path class="cls-27" d="M859.51,840.4l42.89-.12a2.4,2.4,0,0,0,2.4-2.41h0a2.4,2.4,0,0,0-2.41-2.39l-42.9.12A2.41,2.41,0,0,0,857.1,838h0A2.39,2.39,0,0,0,859.51,840.4Z"/><path class="cls-30" d="M902.56,820.89l1.62,13.35c.2,1.64-.72,3.14-1.93,3.15l-42,.12a3.07,3.07,0,0,1-2.75-2c-.59-1.31-.72-3.29,1.16-5.95,3.7-5.28,15.85-6.64,22-11.09a.71.71,0,0,1,.42-.14l19.34-.06C901.45,818.31,902.38,819.4,902.56,820.89Z"/><path class="cls-16" d="M883.77,826.12h0A.92.92,0,0,0,884,825c-.83-1.83-3.43-6.28-8.67-5.35a.76.76,0,0,0-.46.88h0c.05.4.32.67.61.61,4.7-.81,6.91,3.11,7.58,4.64A.48.48,0,0,0,883.77,826.12Z"/><path class="cls-16" d="M879.41,827.85h0a.92.92,0,0,0,.24-1.09c-.83-1.83-3.43-6.27-8.67-5.34-.3.05-.51.45-.46.87h0c.05.4.32.67.61.62,4.7-.82,6.91,3.1,7.58,4.63A.48.48,0,0,0,879.41,827.85Z"/><path class="cls-16" d="M875.36,829.46h0a.89.89,0,0,0,.23-1.08c-.83-1.83-3.42-6.28-8.67-5.35a.76.76,0,0,0-.45.87v0c0,.4.33.66.62.61,4.7-.82,6.9,3.1,7.58,4.64A.47.47,0,0,0,875.36,829.46Z"/><path class="cls-2" d="M778.34,349l0,16,8.56-20s-6.82-4.75-7.36-3.49S778.34,349,778.34,349Z"/><path class="cls-31" d="M783.05,365.56c1,3.2-.32,6.42-2.87,7.19s-5.41-1.19-6.38-4.38.32-6.42,2.87-7.19S782.09,362.37,783.05,365.56Z"/><path class="cls-26" d="M779.25,367.19c0-.79,0-1.58-.12-2.38a25.82,25.82,0,1,1,51.45.32,5.58,5.58,0,0,1,5,.08c2.93,1.65,3.63,6,1.57,9.6s-6.1,5.29-9,3.64a5,5,0,0,1-1.09-.84c-2.45,12.48-13.67,21.23-26,19.87C788.9,396.15,779.32,386.62,779.25,367.19Z"/><path class="cls-31" d="M799.13,361.94c-.28,1.45-.51,2.88-.81,4.27a9.61,9.61,0,0,1-1.38,3.66l-.14.14a1.94,1.94,0,0,1-.16.17,3.72,3.72,0,0,0-.48.49,2.9,2.9,0,0,0-.59,1.28,3.09,3.09,0,0,0,.74,2.54,5,5,0,0,0,4.26,1.55,6.17,6.17,0,0,1-3.33-2.25,1.92,1.92,0,0,1-.29-1.54,1.63,1.63,0,0,1,.35-.66,1.92,1.92,0,0,1,.29-.28l.22-.22.25-.25a5.8,5.8,0,0,0,1.06-2.22,11.78,11.78,0,0,0,.34-2.25A15.29,15.29,0,0,0,799.13,361.94Z"/><path class="cls-2" d="M807.29,365.21a2.25,2.25,0,1,0,2.49-2A2.26,2.26,0,0,0,807.29,365.21Z"/><path class="cls-2" d="M787.91,364.35a2.25,2.25,0,1,0,2.49-2A2.26,2.26,0,0,0,787.91,364.35Z"/><path class="cls-31" d="M808.65,380.88a18.6,18.6,0,0,1-2.06,1.11,17.3,17.3,0,0,1-2.17.83,14,14,0,0,1-4.53.65,12,12,0,0,1-4.43-1,16.62,16.62,0,0,1-3.87-2.55,14.56,14.56,0,0,0,1.68,1.65,14,14,0,0,0,2,1.31,11.85,11.85,0,0,0,2.23.87,12,12,0,0,0,2.38.35,12.51,12.51,0,0,0,4.7-.81A13.55,13.55,0,0,0,808.65,380.88Z"/><path class="cls-2" d="M805.29,359.74a22.37,22.37,0,0,1,3.38-.27,11.32,11.32,0,0,1,3.1.42,10.3,10.3,0,0,1,2.85,1.26,16.25,16.25,0,0,1,1.37.91c.47.33.88.72,1.4,1.06a9.41,9.41,0,0,0-.75-1.65,7.83,7.83,0,0,0-1.16-1.42,7.23,7.23,0,0,0-3.24-1.87,7.53,7.53,0,0,0-3.74-.09A6.86,6.86,0,0,0,805.29,359.74Z"/><path class="cls-2" d="M795.3,359.29a6.9,6.9,0,0,0-3-2,7.54,7.54,0,0,0-3.72-.35,7.34,7.34,0,0,0-3.44,1.48,7.56,7.56,0,0,0-1.31,1.28,9.07,9.07,0,0,0-.94,1.54c.55-.27,1-.61,1.51-.88s1-.57,1.47-.75a10.46,10.46,0,0,1,3-.91,11.28,11.28,0,0,1,3.13-.06A25.61,25.61,0,0,1,795.3,359.29Z"/><path class="cls-2" d="M780.19,334.09s-7.52-.94,1.34-6,31.13-9.19,43.53.09c0,0,3.61-5.33,7.3-3.34s-3.38,4.93-3.38,4.93,5,.63,6.15,3.32c.85,2-2.22,1.58-3.88,1.24,2.76.93,12.57,9.53,3.64,30.65-1.87-.74-10.42-18.55-10.42-18.55s-27.55,10.08-23.28-.72c0,0-28.83,12.25-23-.7C778.22,345,768,344.12,780.19,334.09Z"/><path class="cls-2" d="M834.89,365.07a4.88,4.88,0,0,0-4.52.37c-2.53,1.44-3.28,7.77-3.28,7.77s-11.86,5.25-6.09-24c6.13-31.08,8.58,3.93,8.58,3.93Z"/><path class="cls-26" d="M1104,434.78c-1.69-4.29-2.54-7.82-2.06-10l1.54-3.46c1.93-4.32,1.5-7.5-.25-8l-.35,0L1095,423.82l-2.21-3L1087.6,437l2.1,8.94Z"/><path class="cls-32" d="M1207,406.31,1143.46,450l-42.27-25.27s-6.81,8.53-6,19.2c0,.17,34,34.17,43.25,38.06s66.75-35.77,66.75-35.77Z"/><path class="cls-33" d="M1139.46,517c-5.39-24.15,2.32-43.8-12.72-62.32l-.54-.67a53.24,53.24,0,0,0-33.49-19c8.15-9.38,11.87-25.32,11.87-25.32-15.08,4.28-25.34-2.31-25.34-2.31l6,27.07A52.75,52.75,0,0,0,1050.81,447c-17.67,14.89-38.68,37.79-39.14,62.75s-5.74,34.34,31.09,56.64c38,23,55.93,2.65,78.75,5.7S1145.64,544.67,1139.46,517Z"/><path class="cls-26" d="M1085,431.23l.26,3.28a3.11,3.11,0,0,1-3.43-2.22l-3.52-17.13a2.2,2.2,0,0,1,.79-2.22c2.1-1.63,6.54-4.93,7.52-4.43,1.29.65-5.23,6.43-4.71,6.76s8-2.48,8.21-1.54-6.79,4.67-6.7,5.18,7.22-1,7.66-.14-6.71,3.37-6.74,3.71Z"/><path class="cls-26" d="M1149.61,832.08,1173,817.69l14.28,12.52-6.1,4.33-21.18,3s-8.26-1.07-8.62-1.31A28.66,28.66,0,0,1,1149.61,832.08Z"/><path class="cls-34" d="M1149.61,832.08l-5.13,3.28a2.81,2.81,0,0,0,1.48,5.19l38.78.24a2.48,2.48,0,0,0,2.49-2.46l0-8.12C1161.4,838.27,1152.5,835.71,1149.61,832.08Z"/><path class="cls-2" d="M1249.28,370.82s9.82-22.36-2.2-33.5-26.55-12.71-37.26-9.2-19.8,20.76-17.26,32l34.25-4.23Z"/><path class="cls-35" d="M1245.4,539c-2.61.47-5.24.86-7.87,1.21s-5.26.66-7.9.92c-5.28.52-10.57.87-15.88,1-2.65,0-5.3.06-8,0s-5.3-.22-7.94-.44-5.27-.55-7.89-1-5.21-1-7.77-1.68a79.31,79.31,0,0,0,7.75,1.84c2.61.47,5.25.81,7.89,1.08s5.3.39,8,.49,5.32.08,8,0c5.31-.14,10.62-.49,15.9-1.07,2.64-.29,5.27-.62,7.9-1S1242.8,539.48,1245.4,539Z"/><polygon class="cls-26" points="1187.28 830.21 1192.12 802.77 1171.9 800.62 1170.67 802.01 1167.28 821.05 1176.83 830.69 1187.28 830.21"/><path class="cls-26" d="M1291.9,831.34l9.08-25.92,19,.7-2,7.22L1303.38,829s-7.09,4.38-7.52,4.42A27.75,27.75,0,0,1,1291.9,831.34Z"/><path class="cls-34" d="M1291.9,831.34l-1.91,5.78a2.8,2.8,0,0,0,4.41,3.09l30.25-24.27a2.47,2.47,0,0,0,.38-3.48l-5.08-6.34C1305,828.71,1296.43,832.34,1291.9,831.34Z"/><polygon class="cls-26" points="1319.95 806.13 1306.41 781.78 1289.37 792.87 1289.29 794.72 1298.66 811.64 1312.14 813.09 1319.95 806.13"/><path class="cls-26" d="M1336.4,365a.69.69,0,0,0,1.22,0c1.93-3.8,8.09-15.72,9.16-15.45,1.29.32-4,11.11-3.09,12s5.7-9.77,7-9.2-3.43,10.13-3,10.56,6-8.24,7-8.37-3.8,9.84-3.38,10.53,6-5.1,6.56-4.68,1,.61-7.84,17.25l-3.76,6.4-5.88,3.57-6.62-5s-3.8-23.94-3.06-24.62S1332.19,357.6,1336.4,365Z"/><path class="cls-36" d="M1220.24,551l-6.16,113.63s-9.08,120.17-20.69,145.42h-25.75l12.62-282.25h38.36Z"/><path class="cls-37" d="M1178.81,560.31l1.45-32.5,30.64-.8.69,3.11,35.05-4.33s28.77,37.11,22,96.19-5.3,80.28-5.3,80.28,37.1,34.08,48.45,83.31c0,0-16.28,11.36-27.26,13.26,0,0-54.51-83.32-58.67-93.16-2.49-5.89-10.77-67-17-115.26C1208.79,590.41,1181.48,570.42,1178.81,560.31Z"/><path class="cls-38" d="M1173.57,455a66.43,66.43,0,0,1,24-44.33,13.94,13.94,0,0,1,5.61-2.77,82.81,82.81,0,0,1,16.4-1.63h11.71s18.8,1.05,27.16,3.66,41.27,17.24,44.92,15.15,29.26-48.59,29.26-48.59l14.1,7.31s-8.88,65.09-33.43,69.9-48.58-1.45-48.58-1.45-4.7,65.32-16.72,76.82c0,0-47.44,3.21-65.08,1.18a7.18,7.18,0,0,1-6.26-6C1174.84,512.62,1170.67,481.9,1173.57,455Z"/><path class="cls-26" d="M1188.71,419.51a67.15,67.15,0,0,1,8.89-8.79,14,14,0,0,1,5.62-2.78,82.9,82.9,0,0,1,16.41-1.63h11.71s3.2.18,7.55.57C1229.43,414.1,1211.72,423.86,1188.71,419.51Z"/><path class="cls-26" d="M1227,411.36l-22.13.46c.45-4.92.83-11.43,0-13.78-1.38-4,23.28-4.56,23.28-4.56A148.21,148.21,0,0,0,1227,411.36Z"/><path class="cls-31" d="M1228.19,393.48s-.53,4.11-.88,9.09a21.52,21.52,0,0,1-16.34,4.71,21.27,21.27,0,0,1-5.65-1.55c.14-3.24.09-6.25-.41-7.69C1203.53,394.08,1228.19,393.48,1228.19,393.48Z"/><path class="cls-2" d="M1235.81,363.24s11.79,1,21.86,12.89,10.87,39.35-8.83,52.81-28.94,12.23-36.11,27.3c0,0-9-17.19,6.43-36.41a15,15,0,0,0-8.4,5s-.07-15.79,13.42-23.29,17.06-20.46,8.37-24.76S1235.81,363.24,1235.81,363.24Z"/><path class="cls-31" d="M1196.06,365c.6,3.35-1.08,6.45-3.76,6.93s-5.34-1.84-5.94-5.19,1.08-6.45,3.76-6.93S1195.46,361.62,1196.06,365Z"/><path class="cls-26" d="M1192.08,378.56a48.56,48.56,0,0,1-.07-12.39c.09-.8.14-1.61.17-2.42a26.3,26.3,0,1,1,52,6.4,5.65,5.65,0,0,1,5.09.67c2.77,2,3,6.45.45,9.9s-6.79,4.63-9.56,2.61a5.06,5.06,0,0,1-1-1c-4,12.33-16.35,19.86-28.68,17A24.19,24.19,0,0,1,1192.08,378.56Z"/><path class="cls-2" d="M1219.56,369.46a2.47,2.47,0,1,0,3-1.85A2.48,2.48,0,0,0,1219.56,369.46Z"/><path class="cls-2" d="M1199.58,365.94a2.47,2.47,0,1,0,3-1.86A2.48,2.48,0,0,0,1199.58,365.94Z"/><path class="cls-2" d="M1218.23,365a15.09,15.09,0,0,1,3.65-.7,10.85,10.85,0,0,1,3.6.35,9.23,9.23,0,0,1,1.68.64,11.05,11.05,0,0,1,1.57.92,18.6,18.6,0,0,1,2.77,2.51,9.94,9.94,0,0,0-2.35-3.05,8.24,8.24,0,0,0-1.6-1.13,8.64,8.64,0,0,0-1.84-.74,9,9,0,0,0-3.9-.19,10,10,0,0,0-1.88.51A7.61,7.61,0,0,0,1218.23,365Z"/><path class="cls-2" d="M1208.42,363.31a7.24,7.24,0,0,0-1.3-1.41,10.27,10.27,0,0,0-1.58-1.12,9.05,9.05,0,0,0-3.74-1.17,8.74,8.74,0,0,0-2,.07,8.65,8.65,0,0,0-1.89.51,10.1,10.1,0,0,0-3.25,2.06,18.18,18.18,0,0,1,3.46-1.4,11.26,11.26,0,0,1,1.79-.33,9,9,0,0,1,1.8,0,11.37,11.37,0,0,1,3.5.9A15.37,15.37,0,0,1,1208.42,363.31Z"/><path d="M1264.39,451.88a24.26,24.26,0,0,1-1.87-2.27,25.8,25.8,0,0,1-1.59-2.5,22.58,22.58,0,0,1-1.3-2.66,27,27,0,0,1-1-2.83,15.78,15.78,0,0,0,.64,3c.14.48.32.95.5,1.43s.4.93.63,1.38A20.34,20.34,0,0,0,1262,450a16.32,16.32,0,0,0,1.52,1.91,11.47,11.47,0,0,1-1.56.2,12.14,12.14,0,0,1-2.17-.1c-.36,0-.71-.13-1.07-.21s-.71-.19-1-.32a11.84,11.84,0,0,1-2-1,8.47,8.47,0,0,0,1.88,1.23,8.72,8.72,0,0,0,2.15.75,10.32,10.32,0,0,0,2.28.23,9.54,9.54,0,0,0,2.3-.29l.55-.15Z"/><path class="cls-2" d="M1244.19,370.15s-16.36-10.24-23.82-22.73c0,0-.84,6,.77,8.41-.7.31-12-6.69-13.19-16.51s14.86-3.28,14.86-3.28,9.75.11,10.13.39,6.43,5.54,6.69,5.91,6.9,14.54,6.9,14.54L1248,362l-.62,6.55Z"/><path class="cls-39" d="M1186.43,566.1q2.33,2.26,4.5,4.65c1.46,1.59,2.87,3.22,4.26,4.87s2.76,3.32,4.1,5,2.66,3.4,3.94,5.13l.29-.28a39.66,39.66,0,0,0-3.63-2.31,41.84,41.84,0,0,0-3.86-1.9,33.43,33.43,0,0,0-4-1.47l-1-.29-1-.25-.53-.12-.53-.08-1-.18,1,.23.53.11.51.14,1,.28,1,.32c.34.11.67.23,1,.36s.67.23,1,.37l1,.41c.33.13.65.29,1,.43,1.29.59,2.55,1.25,3.78,2a36.9,36.9,0,0,1,3.57,2.31l1.06.77-.77-1.05q-1.92-2.62-3.94-5.15c-1.35-1.69-2.74-3.36-4.14-5s-2.88-3.22-4.37-4.79c-.76-.78-1.51-1.55-2.3-2.29S1187.23,566.82,1186.43,566.1Z"/><path class="cls-39" d="M1222.69,585.23c1.66-2.24,3.36-4.45,5.13-6.61s3.55-4.3,5.38-6.41,3.74-4.14,5.67-6.15c1-1,2-2,3-2.93s2.05-1.89,3.09-2.82c-2,1.94-4,3.93-5.85,6s-3.72,4.13-5.53,6.25-3.59,4.25-5.33,6.43c-1.39,1.76-2.79,3.53-4.16,5.31,1.1-.72,2.23-1.4,3.37-2a54.61,54.61,0,0,1,5-2.42,44.26,44.26,0,0,1,5.21-1.86l1.33-.37,1.35-.3.68-.15.68-.11,1.37-.22-1.36.28-.67.14-.67.18-1.33.35-1.31.41c-.44.13-.87.29-1.31.45s-.86.3-1.29.47l-1.27.52c-.43.17-.84.37-1.26.55-1.68.75-3.31,1.59-4.9,2.5a50.32,50.32,0,0,0-4.63,2.94l-1.36,1Z"/><path class="cls-40" d="M1214.55,383.2a6.82,6.82,0,0,0-5.67-.25s-2.58-2.33-5.18-1a5.61,5.61,0,0,0,5.12,5.07A5,5,0,0,0,1214.55,383.2Z"/><path class="cls-31" d="M1217.32,382.09a14.92,14.92,0,0,1-1.9.89,14.27,14.27,0,0,1-2,.64,12.66,12.66,0,0,1-4.1.36,10.86,10.86,0,0,1-3.93-1.15,15,15,0,0,1-3.36-2.49,14.26,14.26,0,0,0,1.44,1.57,11.4,11.4,0,0,0,1.72,1.27,9.94,9.94,0,0,0,2,.9,10.24,10.24,0,0,0,6.38-.07A12.11,12.11,0,0,0,1217.32,382.09Z"/><path class="cls-31" d="M1210.76,366.75a30.29,30.29,0,0,0-2.41,3.13,27.18,27.18,0,0,0-2,3.43,10.33,10.33,0,0,0-.72,1.91,2.09,2.09,0,0,0,0,1.19,3.11,3.11,0,0,0,.73.85,9.78,9.78,0,0,0,1.66,1.14,12.78,12.78,0,0,0,1.8.83,21.36,21.36,0,0,1-3-2.43,5.4,5.4,0,0,1-.43-.52,1.07,1.07,0,0,1,0-.88,11.61,11.61,0,0,1,.7-1.75c.55-1.16,1.19-2.29,1.81-3.44S1210.15,367.93,1210.76,366.75Z"/><path class="cls-26" d="M314.11,467.52c2.9-4.46,4.67-8.25,4.63-10.82l-.94-4.27c-1.2-5.33,0-8.82,2.12-9l.41,0,6.42,13.75,3.18-2.88,2.17,19.48-4.42,9.61Z"/><polygon class="cls-26" points="187.41 824.24 187.41 813.26 199.97 809.78 202.76 811.01 203.24 824.24 199.28 835.77 187.41 824.24"/><path class="cls-16" d="M228.11,840l-43.47.41a1.33,1.33,0,0,1-1.35-1.33l0-1.9a1.33,1.33,0,0,1,1.33-1.35l43.46-.41a1.35,1.35,0,0,1,1.36,1.32v1.9A1.33,1.33,0,0,1,228.11,840Z"/><path class="cls-41" d="M185.23,821.9l-1.4,12.75c-.18,1.58.73,3,1.9,3l40.66-.38a3,3,0,0,0,2.64-1.9c.56-1.26.65-3.15-1.19-5.67-3.62-4.95-15.23-6.12-21.23-10.21a1.29,1.29,0,0,0-.73-.23l-18.54.18C186.28,819.43,185.39,820.48,185.23,821.9Z"/><path class="cls-16" d="M203.48,826.66h0a.84.84,0,0,1-.24-1c.78-1.75,3.24-6,8.32-5.2a.72.72,0,0,1,.45.83h0c0,.39-.31.64-.59.6-4.56-.73-6.65,3-7.28,4.51A.46.46,0,0,1,203.48,826.66Z"/><path class="cls-16" d="M207.72,828.26h0a.85.85,0,0,1-.24-1c.78-1.75,3.23-6,8.32-5.2a.72.72,0,0,1,.45.83h0c-.05.39-.31.64-.59.6-4.56-.73-6.65,3-7.28,4.51A.46.46,0,0,1,207.72,828.26Z"/><path class="cls-16" d="M211.66,829.75h0a.83.83,0,0,1-.24-1c.78-1.76,3.24-6,8.32-5.2.3,0,.5.43.45.82v0c0,.38-.31.63-.59.59-4.56-.72-6.64,3-7.28,4.51A.46.46,0,0,1,211.66,829.75Z"/><path class="cls-42" d="M196,835.84c-2.92-7.6-7.16-9.28-10.08-9.41a1.25,1.25,0,0,0-1.3,1.11l-.78,7.11c-.18,1.58.73,3,1.9,3l9.09-.09A1.25,1.25,0,0,0,196,835.84Z"/><polygon class="cls-26" points="99.78 824.24 99.78 813.26 112.34 809.78 115.13 811.01 115.61 824.24 111.66 835.77 99.78 824.24"/><path class="cls-16" d="M140.48,840,97,840.4a1.33,1.33,0,0,1-1.35-1.33l0-1.9A1.35,1.35,0,0,1,97,835.82l43.46-.41a1.35,1.35,0,0,1,1.36,1.32v1.9A1.33,1.33,0,0,1,140.48,840Z"/><path class="cls-41" d="M97.61,821.9,96.2,834.65c-.17,1.58.73,3,1.9,3l40.67-.38a3,3,0,0,0,2.63-1.9c.56-1.26.66-3.15-1.19-5.67-3.62-4.95-15.23-6.12-21.23-10.21a1.24,1.24,0,0,0-.73-.23l-18.54.18A2.48,2.48,0,0,0,97.61,821.9Z"/><path class="cls-16" d="M115.85,826.66h0a.84.84,0,0,1-.24-1c.78-1.75,3.24-6,8.32-5.2a.71.71,0,0,1,.45.83h0c0,.39-.31.64-.59.6-4.56-.73-6.64,3-7.28,4.51A.46.46,0,0,1,115.85,826.66Z"/><path class="cls-16" d="M120.09,828.26h0a.85.85,0,0,1-.24-1c.78-1.75,3.24-6,8.32-5.2a.71.71,0,0,1,.45.83h0c0,.39-.31.64-.59.6-4.56-.73-6.65,3-7.28,4.51A.46.46,0,0,1,120.09,828.26Z"/><path class="cls-16" d="M124,829.75h0a.85.85,0,0,1-.24-1c.78-1.76,3.24-6,8.32-5.2.3,0,.5.43.45.82v0c0,.38-.3.63-.59.59-4.56-.72-6.64,3-7.27,4.51C124.56,829.77,124.28,829.9,124,829.75Z"/><path class="cls-42" d="M108.36,835.84c-2.92-7.6-7.16-9.28-10.08-9.41a1.26,1.26,0,0,0-1.3,1.11l-.78,7.11c-.17,1.58.73,3,1.9,3l9.09-.09A1.25,1.25,0,0,0,108.36,835.84Z"/><path class="cls-43" d="M204.22,411.63,266,475.58l53.58-18.84s5.75,11.21,2.36,23.08c-.06.2-46.28,30.8-57.64,33.07s-67.21-55.79-67.21-55.79Z"/><path class="cls-44" d="M140.76,363.26s-6-25.29,8-34.88,28.84-8.66,39-3.05,16.32,25.39,11.84,36.75l-33.66-10.56Z"/><polygon class="cls-26" points="156.95 385.81 155.79 414.4 180.86 412.11 176.87 387.01 156.95 385.81"/><path class="cls-31" d="M178.77,399,176.87,387,157,385.81l-.4,9.9C160.66,399.47,167.93,403.24,178.77,399Z"/><path class="cls-31" d="M192.73,365c-1.38,3.19-.42,6.67,2.13,7.77s5.73-.59,7.11-3.78.42-6.68-2.13-7.77S194.1,361.84,192.73,365Z"/><path class="cls-26" d="M196.47,367.16c.1-.82.24-1.63.4-2.44A26.87,26.87,0,1,0,143.63,359a5.79,5.79,0,0,0-5.22-.51c-3.22,1.36-4.44,5.72-2.74,9.75s5.68,6.18,8.9,4.81a5,5,0,0,0,1.22-.73c1.08,13.18,11.65,23.55,24.58,23.6C183.09,396,194.12,387.26,196.47,367.16Z"/><path class="cls-31" d="M176.53,359.4c.12,1.54.19,3,.34,4.51a9.89,9.89,0,0,0,1,3.95l.12.16c0,.06.06.09.15.19a3.33,3.33,0,0,1,.43.56,3.11,3.11,0,0,1,.47,1.4A3.15,3.15,0,0,1,178,372.7a5.16,5.16,0,0,1-4.58,1.11,6.36,6.36,0,0,0,3.7-1.93,2,2,0,0,0,.49-1.57,1.75,1.75,0,0,0-.29-.71,2.16,2.16,0,0,0-.27-.33l-.2-.25-.23-.29a5.83,5.83,0,0,1-.83-2.42,11.84,11.84,0,0,1-.09-2.37A15.87,15.87,0,0,1,176.53,359.4Z"/><path class="cls-2" d="M167.71,361.82a2.35,2.35,0,1,1-2.34-2.35A2.34,2.34,0,0,1,167.71,361.82Z"/><path class="cls-2" d="M187.85,363.21a2.35,2.35,0,1,1-2.34-2.35A2.35,2.35,0,0,1,187.85,363.21Z"/><path class="cls-34" d="M170.42,356.4a23.12,23.12,0,0,0-3.46-.67,11.44,11.44,0,0,0-3.26.07,10.85,10.85,0,0,0-3.09,1c-.54.19-1,.54-1.53.79s-1,.64-1.57.92a9.75,9.75,0,0,1,1-1.6,7.84,7.84,0,0,1,1.36-1.34,7.62,7.62,0,0,1,3.57-1.56,8,8,0,0,1,3.88.35A7.2,7.2,0,0,1,170.42,356.4Z"/><path class="cls-34" d="M180.8,357.11a7.24,7.24,0,0,1,3.34-1.73,7.85,7.85,0,0,1,3.88.08,7.6,7.6,0,0,1,3.39,1.93,8,8,0,0,1,1.2,1.48,9.39,9.39,0,0,1,.8,1.7c-.55-.34-1-.75-1.46-1.09s-.93-.69-1.44-.94a11,11,0,0,0-3-1.3,11.87,11.87,0,0,0-3.23-.42A24.29,24.29,0,0,0,180.8,357.11Z"/><path class="cls-44" d="M144,359.37a4.06,4.06,0,0,0-2.73-1.22L142,350l2.52-4.95s9.91-13.32,10.26-13.65,7.94-4.66,8.41-4.88,11.13,1.34,11.13,1.34,18.72-3.92,15.6,5.9-16.78,15-17.49,14.58c2.22-2.2,2.42-8.45,2.42-8.45C165.16,350.41,146.87,358.2,144,359.37Z"/><path class="cls-16" d="M182.44,377.19a7,7,0,0,1-13.47.36Z"/><path class="cls-26" d="M149.41,407.64l35.3-.1,4.47,20.87-19.37,50.67s-19.37-20.86-19.37-23.84S141.5,429.9,143,426.92,149.41,407.64,149.41,407.64Z"/><path class="cls-45" d="M213.65,551.52c-14.94,22-44.8,53.68-44.8,53.68h0l13.76,212.93s19.94,2.11,26.79-3.07C209.4,815.06,214.62,613.19,213.65,551.52Z"/><path class="cls-46" d="M208,559.69c-.05-3.11,5.77,6.07,5.66,3.58-2.29-51.72-74.8-8.35-74.8-8.35l-15.24-3.13-28,265.48s18.21,3.93,28.63,0l44.58-209.48S184.8,601.11,208,559.69Z"/><path class="cls-26" d="M115.54,598.46a.78.78,0,0,0-1.33.3c-1.26,4.58-5.33,19-6.57,18.92-1.48-.07,1.85-13,.71-13.78s-4.06,12-5.62,11.62,1.49-11.83.88-12.2-4.72,10.34-5.75,10.7,2-11.6,1.34-12.26-5.42,6.92-6.12,6.58-1.22-.45,4.73-20.6l2.68-7.83,5.64-5.21,8.33,4s9.48,25.32,8.83,26.23S121.77,605.56,115.54,598.46Z"/><path class="cls-16" d="M152.54,410.92s17.62,10.68,31.59,0c0,0,7.94,21,7.19,21.74s-9,23.36-9,24.11-9.79,9.8-14.31,3-7.54-6-13.56-20.35-10.55-18.84-9-20.35S152.54,410.92,152.54,410.92Z"/><path class="cls-9" d="M150.44,407.54s-35.75,3-43.2,14.91S81.91,502.93,83.4,523.8s14.9,61.1,14.9,61.1,11.92,1.49,16.39-6c0,0-8.94-56.64-7.45-61.11s17.87-50.67,17.87-50.67l-3,90.92s35.76,22.35,92.38,4.47c0,0,7.45-147.55-11.92-152l-17.88-3-7.45,43.23Z"/><path class="cls-47" d="M255.08,552.31c11.65-26,7.45-50,28.71-67.5l.77-.64a61.37,61.37,0,0,1,42.21-13.72c-7-12.49-7.59-31.36-7.59-31.36,16.06,8.3,29.17,3.22,29.17,3.22l-13.06,29.2a60.84,60.84,0,0,1,36.11,22c16.55,20.89,35,51.6,29.81,79.92-5.19,28.17-1.42,40.14-48.17,56.86-48.18,17.23-63.83-9.87-90.32-11.68S241.74,582.13,255.08,552.31Z"/><path class="cls-26" d="M336.34,467.86l-1,3.65a3.57,3.57,0,0,0,4.39-1.72l7.92-18.55a2.54,2.54,0,0,0-.39-2.69c-2-2.32-6.26-7.08-7.48-6.74-1.61.45,4.43,8.48,3.77,8.74s-8.44-4.65-8.93-3.64,6.6,6.85,6.38,7.4-7.93-2.77-8.62-1.93,6.81,5.36,6.76,5.75Z"/><path class="cls-4" d="M334.83,539.82H445.68L416.12,823.38A19.43,19.43,0,0,1,396.8,840.8H279.13a19.44,19.44,0,0,1-19.33-17.42L230.25,539.82Z"/><rect class="cls-48" x="217.64" y="531.62" width="238.83" height="24.49" rx="9.23" transform="translate(674.11 1087.72) rotate(180)"/><polygon class="cls-49" points="393.73 556.1 373.11 840.8 297.47 840.8 278.38 556.1 393.73 556.1"/><g class="cls-50"><path class="cls-16" d="M314.56,675.67l-15.64,27s-4.17,6.48-1.49,13l-13.86-23.32a15,15,0,0,1-1.95-10.26,10.26,10.26,0,0,1,.91-2.9c1.76-3.33,9.54-16.57,9.54-16.57l-12.87-7.22,32.3-1.2,14.72,28.14Z"/><path class="cls-16" d="M304.28,697.88h22.77v26.3H311.87s-16.29-1.3-12.31-17.22Z"/><path class="cls-16" d="M353.21,696.54l31.22-.71s7.7.18,11.83-5.49l-12.69,24a14.93,14.93,0,0,1-7.74,7,10,10,0,0,1-2.94.73c-3.76.23-19.11.48-19.11.48l.53,14.75-17.84-27,16.36-27.22Z"/><path class="cls-16" d="M377.53,693.75,365.67,674.3l22.44-13.68,7.91,13s7.37,14.58-8.29,19.48Z"/><path class="cls-16" d="M351.46,652.17l-15.77-26.95s-3.57-6.83-10.53-7.69l27.12-.54a15,15,0,0,1,9.88,3.37,9.93,9.93,0,0,1,2.06,2.22c2,3.18,9.7,16.48,9.7,16.48l12.63-7.62-14.91,28.68L339.91,659Z"/><path class="cls-16" d="M337.23,632.26,326,652.06l-22.85-13,7.49-13.2s9.17-13.53,21.05-2.21Z"/></g><path class="cls-4" d="M1041.53,539.82h110.86l-29.56,283.56a19.44,19.44,0,0,1-19.33,17.42H985.83a19.43,19.43,0,0,1-19.32-17.42L937,539.82Z"/><rect class="cls-48" x="924.34" y="531.62" width="238.83" height="24.49" rx="9.23" transform="translate(2087.52 1087.72) rotate(180)"/><polygon class="cls-49" points="1100.44 556.1 1079.81 840.8 1004.18 840.8 985.08 556.1 1100.44 556.1"/><g class="cls-50"><path class="cls-16" d="M1021.26,675.67l-15.64,27s-4.17,6.48-1.48,13l-13.87-23.32a15,15,0,0,1-1.95-10.26,10.27,10.27,0,0,1,.92-2.9c1.75-3.33,9.53-16.57,9.53-16.57l-12.87-7.22,32.3-1.2,14.72,28.14Z"/><path class="cls-16" d="M1011,697.88h22.76v26.3h-15.18s-16.28-1.3-12.3-17.22Z"/><path class="cls-16" d="M1059.92,696.54l31.21-.71s7.7.18,11.83-5.49l-12.69,24a14.91,14.91,0,0,1-7.73,7,10.11,10.11,0,0,1-3,.73c-3.76.23-19.11.48-19.11.48l.54,14.75-17.85-27,16.36-27.22Z"/><path class="cls-16" d="M1084.23,693.75l-11.86-19.45,22.45-13.68,7.9,13s7.37,14.58-8.29,19.48Z"/><path class="cls-16" d="M1058.17,652.17l-15.78-26.95s-3.57-6.83-10.53-7.69L1059,617a14.94,14.94,0,0,1,9.88,3.37,9.93,9.93,0,0,1,2.06,2.22c2,3.18,9.7,16.48,9.7,16.48l12.63-7.62-14.91,28.68-31.73-1.1Z"/><path class="cls-16" d="M1043.93,632.26l-11.25,19.8-22.85-13,7.49-13.2s9.18-13.53,21-2.21Z"/></g><g class="cls-50"><path class="cls-16" d="M654.79,675.67l-15.64,27s-4.16,6.48-1.48,13l-13.86-23.32a15,15,0,0,1-1.95-10.26,10,10,0,0,1,.91-2.9c1.76-3.33,9.53-16.57,9.53-16.57l-12.86-7.22,32.3-1.2,14.71,28.14Z"/><path class="cls-16" d="M644.52,697.88h22.77v26.3H652.11s-16.29-1.3-12.31-17.22Z"/><path class="cls-16" d="M693.45,696.54l31.22-.71s7.7.18,11.83-5.49l-12.69,24a15,15,0,0,1-7.74,7,10,10,0,0,1-3,.73c-3.76.23-19.1.48-19.1.48l.53,14.75-17.84-27,16.36-27.22Z"/><path class="cls-16" d="M717.76,693.75,705.91,674.3l22.44-13.68,7.9,13s7.38,14.58-8.29,19.48Z"/><path class="cls-16" d="M691.7,652.17l-15.77-26.95s-3.58-6.83-10.54-7.69l27.12-.54a14.94,14.94,0,0,1,9.88,3.37,10,10,0,0,1,2.07,2.22c2,3.18,9.7,16.48,9.7,16.48l12.63-7.62-14.91,28.68L680.15,659Z"/><path class="cls-16" d="M677.46,632.26l-11.24,19.8-22.86-13,7.5-13.2s9.17-13.53,21-2.21Z"/></g><rect class="cls-3" y="840.8" width="1866.71" height="12.13" rx="6.06"/><path class="cls-4" d="M664.07,542.07H774.93L745.37,825.63a19.43,19.43,0,0,1-19.32,17.42H608.38a19.44,19.44,0,0,1-19.33-17.42L559.49,542.07Z"/><rect class="cls-48" x="546.89" y="533.87" width="238.83" height="24.49" rx="9.23" transform="translate(1332.61 1092.23) rotate(180)"/><polygon class="cls-49" points="722.98 558.36 702.35 843.05 626.72 843.05 607.62 558.36 722.98 558.36"/><g class="cls-50"><path class="cls-16" d="M643.8,677.92l-15.64,27s-4.16,6.48-1.48,13l-13.86-23.33a15,15,0,0,1-2-10.25,10,10,0,0,1,.91-2.9c1.76-3.33,9.53-16.57,9.53-16.57l-12.86-7.22,32.3-1.2,14.71,28.14Z"/><path class="cls-16" d="M633.53,700.14H656.3v26.3H641.12s-16.29-1.3-12.31-17.23Z"/><path class="cls-16" d="M682.46,698.8l31.22-.72s7.7.19,11.83-5.48l-12.69,24a15,15,0,0,1-7.74,7,10,10,0,0,1-3,.73c-3.76.23-19.1.48-19.1.48l.53,14.75-17.84-27,16.36-27.22Z"/><path class="cls-16" d="M706.77,696l-11.85-19.45,22.44-13.69,7.9,13s7.38,14.58-8.29,19.47Z"/><path class="cls-16" d="M680.71,654.43l-15.77-27s-3.58-6.82-10.54-7.69l27.12-.53a15,15,0,0,1,9.89,3.36,10.21,10.21,0,0,1,2.06,2.23c2,3.17,9.7,16.48,9.7,16.48l12.63-7.63-14.91,28.69-31.73-1.1Z"/><path class="cls-16" d="M666.47,634.52l-11.24,19.8-22.86-13,7.5-13.21s9.17-13.52,21-2.2Z"/></g></g></g></g></svg>