<svg xmlns="http://www.w3.org/2000/svg" width="419.46" height="328.93" viewBox="0 0 419.46 328.93">
  <g id="Group_47" data-name="Group 47" transform="translate(-1463.224 -613.816)">
    <g id="Group_11" data-name="Group 11" transform="translate(1463.224 613.816)">
      <path id="Path_55" data-name="Path 55" d="M1353.257,1028.837H1230.043L1262.9,1330.51c1.147,10.532,10.418,18.532,21.479,18.532h130.792c11.058,0,20.33-8,21.477-18.532l32.854-301.673Z" transform="translate(-1218.049 -1020.112)" fill="#154001"/>
      <path id="Rectangle_11" data-name="Rectangle 11" d="M13.025,0H252.434A13.025,13.025,0,0,1,265.46,13.025v0a13.025,13.025,0,0,1-13.025,13.025H13.026A13.026,13.026,0,0,1,0,13.025v0A13.025,13.025,0,0,1,13.025,0Z" fill="#154001"/>
      <path id="Path_56" data-name="Path 56" d="M1368.026,1072.094l22.927,302.879h84.064l21.228-302.879Z" transform="translate(-1298.291 -1046.043)" fill="#fff" opacity="0.2"/>
    </g>
    <g id="Group_14" data-name="Group 14" transform="translate(1528.496 701.509)" opacity="0.6">
      <g id="Group_12" data-name="Group 12" transform="translate(78.581 39.578)">
        <path id="Path_57" data-name="Path 57" d="M1560.318,1355.466l17.384,28.76s4.629,6.895,1.646,13.789l15.406-24.814a15.386,15.386,0,0,0,2.172-10.912,10.4,10.4,0,0,0-1.017-3.081c-1.955-3.546-10.6-17.63-10.6-17.63l14.3-7.683-35.9-1.281-16.356,29.942Z" transform="translate(-1546.431 -1332.616)" fill="#f2f2f2"/>
        <path id="Path_58" data-name="Path 58" d="M1570.449,1448.681h-25.305v27.972h16.87s18.1-1.379,13.681-18.32Z" transform="translate(-1545.144 -1402.192)" fill="#f2f2f2"/>
      </g>
      <g id="Group_13" data-name="Group 13" transform="translate(0 46.416)">
        <path id="Path_59" data-name="Path 59" d="M1409.159,1423.729l-34.7-.761s-8.557.194-13.152-5.834l14.106,25.514a16.423,16.423,0,0,0,8.6,7.457,11.589,11.589,0,0,0,3.277.772c4.179.248,21.237.518,21.237.518l-.594,15.688,19.832-28.682-18.184-28.959Z" transform="translate(-1359.658 -1385.508)" fill="#f2f2f2"/>
        <path id="Path_60" data-name="Path 60" d="M1379.839,1384.938l13.175-20.687-24.943-14.563-8.783,13.791s-8.2,15.518,9.213,20.722Z" transform="translate(-1357.361 -1349.688)" fill="#f2f2f2"/>
      </g>
      <path id="Path_61" data-name="Path 61" d="M1426.105,1271.239l17.53-28.678s3.975-7.259,11.709-8.182l-30.143-.57a17.144,17.144,0,0,0-10.982,3.581,10.95,10.95,0,0,0-2.3,2.369c-2.254,3.378-10.777,17.528-10.777,17.528l-14.038-8.109,16.569,30.521,35.269-1.172Z" transform="translate(-1374.66 -1233.806)" fill="#f2f2f2"/>
      <path id="Path_62" data-name="Path 62" d="M1518.119,1253.511l12.5,21.068,25.4-13.816-8.333-14.045s-10.194-14.392-23.394-2.342Z" transform="translate(-1450.848 -1237.259)" fill="#f2f2f2"/>
    </g>
    <g id="Group_45" data-name="Group 45" transform="translate(1617.224 613.816)">
      <path id="Path_55-2" data-name="Path 55" d="M1353.257,1028.837H1230.043L1262.9,1330.51c1.147,10.532,10.418,18.532,21.479,18.532h130.792c11.058,0,20.33-8,21.477-18.532l32.854-301.673Z" transform="translate(-1218.049 -1020.112)" fill="#154001"/>
      <path id="Rectangle_11-2" data-name="Rectangle 11" d="M13.025,0H252.434A13.025,13.025,0,0,1,265.46,13.025v0a13.025,13.025,0,0,1-13.025,13.025H13.026A13.026,13.026,0,0,1,0,13.025v0A13.025,13.025,0,0,1,13.025,0Z" fill="#154001"/>
      <path id="Path_56-2" data-name="Path 56" d="M1368.026,1072.094l22.927,302.879h84.064l21.228-302.879Z" transform="translate(-1298.291 -1046.043)" fill="#fff" opacity="0.2"/>
    </g>
    <g id="Group_46" data-name="Group 46" transform="translate(1682.496 701.509)" opacity="0.6">
      <g id="Group_12-2" data-name="Group 12" transform="translate(78.581 39.578)">
        <path id="Path_57-2" data-name="Path 57" d="M1560.318,1355.466l17.384,28.76s4.629,6.895,1.646,13.789l15.406-24.814a15.386,15.386,0,0,0,2.172-10.912,10.4,10.4,0,0,0-1.017-3.081c-1.955-3.546-10.6-17.63-10.6-17.63l14.3-7.683-35.9-1.281-16.356,29.942Z" transform="translate(-1546.431 -1332.616)" fill="#f2f2f2"/>
        <path id="Path_58-2" data-name="Path 58" d="M1570.449,1448.681h-25.305v27.972h16.87s18.1-1.379,13.681-18.32Z" transform="translate(-1545.144 -1402.192)" fill="#f2f2f2"/>
      </g>
      <g id="Group_13-2" data-name="Group 13" transform="translate(0 46.416)">
        <path id="Path_59-2" data-name="Path 59" d="M1409.159,1423.729l-34.7-.761s-8.557.194-13.152-5.834l14.106,25.514a16.423,16.423,0,0,0,8.6,7.457,11.589,11.589,0,0,0,3.277.772c4.179.248,21.237.518,21.237.518l-.594,15.688,19.832-28.682-18.184-28.959Z" transform="translate(-1359.658 -1385.508)" fill="#f2f2f2"/>
        <path id="Path_60-2" data-name="Path 60" d="M1379.839,1384.938l13.175-20.687-24.943-14.563-8.783,13.791s-8.2,15.518,9.213,20.722Z" transform="translate(-1357.361 -1349.688)" fill="#f2f2f2"/>
      </g>
      <path id="Path_61-2" data-name="Path 61" d="M1426.105,1271.239l17.53-28.678s3.975-7.259,11.709-8.182l-30.143-.57a17.144,17.144,0,0,0-10.982,3.581,10.95,10.95,0,0,0-2.3,2.369c-2.254,3.378-10.777,17.528-10.777,17.528l-14.038-8.109,16.569,30.521,35.269-1.172Z" transform="translate(-1374.66 -1233.806)" fill="#f2f2f2"/>
      <path id="Path_62-2" data-name="Path 62" d="M1518.119,1253.511l12.5,21.068,25.4-13.816-8.333-14.045s-10.194-14.392-23.394-2.342Z" transform="translate(-1450.848 -1237.259)" fill="#f2f2f2"/>
    </g>
  </g>
</svg>
