<svg xmlns="http://www.w3.org/2000/svg" width="551.299" height="487.731" viewBox="0 0 551.299 487.731">
  <g id="Group_42" data-name="Group 42" transform="translate(1558.201 160.542)">
    <g id="Group_10" data-name="Group 10" transform="translate(-1558.201 -160.542)">
      <path id="Path_6" data-name="Path 6" d="M713.282,1712.395c-3.905,14.557-7.536,29.1-7.536,29.1,18.133,5.34,20.648-5.733,19.532-8.4,1.372-5.987,6.835-14.943,6.835-14.943C712.584,1717.078,713.282,1712.395,713.282,1712.395Z" transform="translate(-574.57 -1272.132)" fill="#ff7446"/>
      <path id="Path_7" data-name="Path 7" d="M448.209,1677.944l-17.72,9.318,7.146,15.312,21.428-6.731A33.05,33.05,0,0,0,448.209,1677.944Z" transform="translate(-414.499 -1251.48)" fill="#ff7446"/>
      <path id="Path_8" data-name="Path 8" d="M703.184,1767.732a22.241,22.241,0,0,0-3.519,10.062,33.521,33.521,0,0,0,1.13,12.257s31.986,1.722,44.512-.5,13.64-4.323,13.327-7.719-17.31-2.377-22.394-6.455-12.17-12.827-15.178-11.4-2.417,6.881-6.484,7.225S705,1765.658,703.184,1767.732Z" transform="translate(-570.936 -1302.955)" fill="#09434c"/>
      <path id="Path_9" data-name="Path 9" d="M415.418,1688.647a24.865,24.865,0,0,0-11.065-.648,37.477,37.477,0,0,0-12.076,4.218s6.544,30.018,12.034,41.022,7.895,11.491,11.24,10.323-2.083-16.619.716-22.375,9.793-14.572,7.578-16.985-7.57-.453-8.969-4.124S417.98,1689.788,415.418,1688.647Z" transform="translate(-392.277 -1257.323)" fill="#09434c"/>
      <path id="Path_10" data-name="Path 10" d="M514.863,1239.971s14.191,92.663,14.191,104.153-70.22,52.038-70.22,52.038,6.21,23.963,16.713,28.369c3.665,1.537,83.982-49.457,88.332-59.131,4.989-11.095,18.669-89.671,18.669-89.671s30.694,44.181,29.346,53.286c-2.115,14.293-48.015,90.96-48.015,90.96s6.264,13.271,28.536,4.1c0,0,62.506-73.756,70.383-83.5,18.639-23.048-65.908-126.463-65.908-126.463Z" transform="translate(-430.982 -973.436)" fill="#453faf"/>
      <path id="Path_11" data-name="Path 11" d="M772.311,1391.489c0-15.414-40.816-69.315-40.816-69.315l-2.969,18.33s30.693,44.181,29.346,53.286c-2.115,14.293-48.015,90.96-48.015,90.96a13.08,13.08,0,0,0,5.335,5.184C737.666,1468.188,772.311,1405.414,772.311,1391.489Z" transform="translate(-576.962 -1038.21)" fill="#0d5965" opacity="0.32"/>
      <g id="Group_4" data-name="Group 4" transform="translate(83.881 255.078)" opacity="0.5">
        <path id="Path_12" data-name="Path 12" d="M632.028,1266.386a123.231,123.231,0,0,0-2.946-16.33l-36.354,11.458s1.893,12.36,4.3,28.613c7.418,3.776,14.6,6.265,18.671,5.492,7.058-1.34,16.36-11.6,16.36-29.245C632.053,1266.383,632.036,1266.382,632.028,1266.386Z" transform="translate(-592.727 -1250.056)" fill="#0d5965"/>
      </g>
      <path id="Path_13" data-name="Path 13" d="M542.715,1012.82C538,968.329,487.737,878.586,470.306,848.57c-8.222.548-15.48,3.163-19.575,9.461-14,21.544,3,112.981,18.506,139.79a97.571,97.571,0,0,0,19.172,23.686c9.13,8.219,30.378,19.915,38.574,18.417,6.8-1.242,15.759-10.755,15.759-27.117C542.74,1012.817,542.724,1012.816,542.715,1012.82Z" transform="translate(-423.242 -754.304)" fill="#1e5903"/>
      <path id="Path_14" data-name="Path 14" d="M636.217,1002.439c-.194-.326-70.7-138.313-86.037-144.581-.3-.13-1.123-.457-1.577-.635-10.715-4.188-24.773-8.1-36.233-8.8a56.423,56.423,0,0,0-7.626-.023c17.431,30.016,67.7,119.759,72.409,164.25C595.032,1004.277,616.8,997.45,636.217,1002.439Z" transform="translate(-457.68 -754.134)" fill="#fff"/>
      <g id="Group_5" data-name="Group 5" transform="translate(89.489 173.982)" opacity="0.5">
        <path id="Path_15" data-name="Path 15" d="M606.127,1047.592c11.016,23.046,21.037,46.823,26.351,66.358,34.391,5.283,43.28,2.206,57.951-1.219-7.154-13.766-12.268-23.329-14.236-27.045Z" transform="translate(-606.127 -1047.592)" fill="#531c2e"/>
      </g>
      <g id="Group_6" data-name="Group 6" transform="translate(22.353 137.482)">
        <path id="Path_16" data-name="Path 16" d="M514.989,1057.278c5.192,1.219,13.969,1.823,24.191,2.045-5.314-19.535-15.335-43.311-26.351-66.358l-67.136-36.5c.011.162.021.323.032.483a113.458,113.458,0,0,0,34.169,73.606C493.581,1043.976,507.106,1055.427,514.989,1057.278Z" transform="translate(-445.693 -956.464)" fill="#154001"/>
      </g>
      <g id="Group_9" data-name="Group 9" transform="translate(92.304 33.537)">
        <path id="Path_17" data-name="Path 17" d="M777.275,885.459c-1.033-10.544-8.84-34.318-11.984-40.8s8.121-42.058,8.121-42.058l-142.169,9.911s5.484,20.948,0,25.664c-18.387,15.811-4.732,12.253-7.027,23.421-1.214,5.909-10.875,13.56-11.356,19.433-.186,2.261,5.645,5.7,5.633,7.782-.038,6.243,5.343,19.213,7.5,22.1l149.818-.014S777.9,891.8,777.275,885.459Z" transform="translate(-612.856 -760.284)" fill="#3f19ff"/>
        <path id="Path_18" data-name="Path 18" d="M795.987,764.149S711.7,795.175,679.561,787.01s-29.57-33.475,3.429-50.213S817.558,743.6,795.987,764.149Z" transform="translate(-638.408 -717.427)" fill="#db8a00"/>
        <path id="Path_19" data-name="Path 19" d="M869.654,722.675V696.952h8.571v25.723a9.341,9.341,0,0,0,4.391,7.62,11.348,11.348,0,0,1,5.262,9.32v50.09H860v-50.09a11.348,11.348,0,0,1,5.263-9.32A9.342,9.342,0,0,0,869.654,722.675Z" transform="translate(-756.579 -696.952)" fill="#006837"/>
        <path id="Path_20" data-name="Path 20" d="M746.572,743.568a1.735,1.735,0,0,1-1.472-1.4l-.536-3.031-10.4,1.711.532,3.006a1.673,1.673,0,0,1-.908,1.786,10.924,10.924,0,0,0-6,11.625l12.07,68.233a11.5,11.5,0,0,0,13.31,9.05l5.689-.922a11.11,11.11,0,0,0,9.456-12.74l-12.07-68.233A11.327,11.327,0,0,0,746.572,743.568Z" transform="translate(-679.596 -722.24)" fill="#97f0ff" opacity="0.57"/>
        <path id="Path_21" data-name="Path 21" d="M742.067,746.152a1.734,1.734,0,0,1-1.472-1.4l-.657-3.715-5.775.95.532,3.007a1.674,1.674,0,0,1-.908,1.786,10.924,10.924,0,0,0-6,11.625l12.07,68.233a11.5,11.5,0,0,0,13.31,9.051l5.07-.822a10.9,10.9,0,0,0,5.569-11.4l-12.069-68.232A11.326,11.326,0,0,0,742.067,746.152Z" transform="translate(-679.596 -723.379)" fill="#fff" opacity="0.57"/>
        <g id="Group_7" data-name="Group 7" transform="translate(24.094 39.003)">
          <path id="Path_22" data-name="Path 22" d="M702.269,813.52l-13.845,33.969-17.991-4.04.282-2.592,3.706-34.081,13.12,3.178Z" transform="translate(-670.433 -801.789)" fill="#9b0a3a"/>
          <path id="Path_23" data-name="Path 23" d="M701.92,823.288l-13.572,33.963-17.915-3.9,18.067,4.178,14.119-33.977Z" transform="translate(-670.433 -811.688)" fill="#44051d"/>
          <path id="Path_24" data-name="Path 24" d="M671.106,840.857l3.706-34.081,13.12,3.178C686.346,821.617,682.048,841.27,671.106,840.857Z" transform="translate(-670.824 -801.79)" fill="#bf1657"/>
          <path id="Path_25" data-name="Path 25" d="M710.568,800.91l-.443,1.8-25.713-5.774.443-1.805a1.1,1.1,0,0,1,1.314-.78l23.587,5.3A1.044,1.044,0,0,1,710.568,800.91Z" transform="translate(-678.563 -794.327)" fill="#f4e4a2"/>
          <path id="Path_26" data-name="Path 26" d="M724.242,803.668l-.443,1.8-12.874-2.892a4.211,4.211,0,0,0,.154-1.2c-.009-.544-1.5-1.526-3.153-2.458l15.5,3.482A1.045,1.045,0,0,1,724.242,803.668Z" transform="translate(-692.237 -797.085)" fill="#efba50"/>
          <path id="Path_27" data-name="Path 27" d="M705.987,811.093l-31.184-7,2.746-2.315.243-.207,27.234,6.116Z" transform="translate(-672.975 -798.668)" fill="#f4e4a2"/>
          <path id="Path_28" data-name="Path 28" d="M709.8,811.093l-8.421-1.891c-.409-2.335-16.8-6.609-20.017-7.427l.243-.207,27.234,6.116Z" transform="translate(-676.79 -798.667)" fill="#efba50"/>
          <path id="Path_65" data-name="Path 65" d="M.009.305,31.968,0l-.009.929L0,1.234Z" transform="matrix(0.974, 0.228, -0.228, 0.974, 1.889, 5.123)" fill="#f4c87a"/>
          <path id="Path_29" data-name="Path 29" d="M681.379,798.315l27.356,6.144a.656.656,0,0,1,.511.789v0a.688.688,0,0,1-.824.489l-27.357-6.143a.655.655,0,0,1-.51-.789v0A.687.687,0,0,1,681.379,798.315Z" transform="translate(-676.308 -796.707)" fill="#f4e4a2"/>
          <path id="Path_30" data-name="Path 30" d="M702.269,813.52l-13.845,33.969-17.991-4.04.282-2.592,3.706-34.081,13.12,3.178Z" transform="translate(-670.433 -801.789)" fill="#fc7a22"/>
          <path id="Path_31" data-name="Path 31" d="M701.92,823.288l-13.572,33.963-17.915-3.9,18.067,4.178,14.119-33.977Z" transform="translate(-670.433 -811.688)" fill="#44051d"/>
          <path id="Path_32" data-name="Path 32" d="M686.482,831.47l3.705-34.08,13.12,3.178C701.722,812.23,697.425,831.884,686.482,831.47Z" transform="translate(-679.766 -796.163)" fill="#fc8a3d"/>
          <path id="Path_33" data-name="Path 33" d="M710.568,800.91l-.443,1.8-25.713-5.774.443-1.805a1.1,1.1,0,0,1,1.314-.78l23.587,5.3A1.044,1.044,0,0,1,710.568,800.91Z" transform="translate(-678.563 -794.327)" fill="#f4e4a2"/>
          <path id="Path_34" data-name="Path 34" d="M705.987,811.093l-31.184-7,2.746-2.315.243-.207,27.234,6.116Z" transform="translate(-672.975 -798.668)" fill="#f4e4a2"/>
          <path id="Path_66" data-name="Path 66" d="M.009.305,31.968,0l-.009.929L0,1.234Z" transform="matrix(0.974, 0.228, -0.228, 0.974, 1.889, 5.123)" fill="#f4c87a"/>
          <path id="Path_35" data-name="Path 35" d="M681.379,798.315l27.356,6.144a.656.656,0,0,1,.511.789v0a.688.688,0,0,1-.824.489l-27.357-6.143a.655.655,0,0,1-.51-.789v0A.687.687,0,0,1,681.379,798.315Z" transform="translate(-676.308 -796.707)" fill="#f4e4a2"/>
        </g>
        <g id="Group_8" data-name="Group 8" transform="translate(45.824 15.066)">
          <path id="Path_36" data-name="Path 36" d="M773.1,782.834a5.4,5.4,0,0,1,1.994-2.207,13.029,13.029,0,0,0,2.281-.913,17.523,17.523,0,0,0,5.492-5.021,10.154,10.154,0,0,0,1.284-8.792,6.693,6.693,0,0,1,.779-5.577l4.284-6.673-7.457-5.594-5.745,5.576a7.274,7.274,0,0,1-4.36,1.438,15.07,15.07,0,0,0-12.177,7.231,17.815,17.815,0,0,0-1.329,2.988,11.647,11.647,0,0,0-.381,2.338A5.317,5.317,0,0,1,756,770.01a3.389,3.389,0,0,1-3.2.791,4.317,4.317,0,0,0-4.507,1.376l-25.038,30.58a3.91,3.91,0,0,0,.716,5.65L741.8,821.778a4.332,4.332,0,0,0,5.9-.685l25.038-30.58a3.887,3.887,0,0,0,.319-4.518A3.028,3.028,0,0,1,773.1,782.834Z" transform="translate(-722.361 -742.654)" fill="#97f0ff"/>
          <path id="Path_37" data-name="Path 37" d="M773.1,782.834a5.4,5.4,0,0,1,1.994-2.207,13.029,13.029,0,0,0,2.281-.913,17.523,17.523,0,0,0,5.492-5.021,10.154,10.154,0,0,0,1.284-8.792,6.693,6.693,0,0,1,.779-5.577l4.284-6.673-7.457-5.594-5.745,5.576a7.274,7.274,0,0,1-4.36,1.438,15.07,15.07,0,0,0-12.177,7.231,17.815,17.815,0,0,0-1.329,2.988,11.647,11.647,0,0,0-.381,2.338A5.317,5.317,0,0,1,756,770.01a3.389,3.389,0,0,1-3.2.791,4.317,4.317,0,0,0-4.507,1.376l-25.038,30.58a3.91,3.91,0,0,0,.716,5.65L741.8,821.778a4.332,4.332,0,0,0,5.9-.685l25.038-30.58a3.887,3.887,0,0,0,.319-4.518A3.028,3.028,0,0,1,773.1,782.834Z" transform="translate(-722.361 -742.654)" fill="#97f0ff"/>
          <path id="Path_38" data-name="Path 38" d="M794.539,789.9a3.028,3.028,0,0,1,.038-3.161,5.4,5.4,0,0,1,1.994-2.207,13.006,13.006,0,0,0,2.281-.913,17.518,17.518,0,0,0,5.492-5.021,10.155,10.155,0,0,0,1.283-8.792,6.692,6.692,0,0,1,.779-5.577l4.284-6.673-3.98-2.986-4.284,6.672a6.692,6.692,0,0,0-.779,5.577,10.155,10.155,0,0,1-1.283,8.792,17.523,17.523,0,0,1-5.493,5.021,12.944,12.944,0,0,1-2.281.913,5.39,5.39,0,0,0-1.994,2.208,3.029,3.029,0,0,0-.039,3.161,3.885,3.885,0,0,1-.319,4.518L765.2,822.011a4.332,4.332,0,0,1-5.9.685l3.98,2.986a4.332,4.332,0,0,0,5.9-.685l25.038-30.58A3.887,3.887,0,0,0,794.539,789.9Z" transform="translate(-743.843 -746.557)" fill="#4b6568" opacity="0.49" style="mix-blend-mode: multiply;isolation: isolate"/>
          <path id="Path_39" data-name="Path 39" d="M874.377,742.3l-3.386,4.136-10.005-7.5,3.386-4.136a.655.655,0,0,1,.893-.1l9,6.755A.591.591,0,0,1,874.377,742.3Z" transform="translate(-802.977 -734.566)" fill="#97f0ff"/>
          <path id="Path_40" data-name="Path 40" d="M877.744,751.524l-5.149-3.862,3.778-4.615,4.648,3.486a.591.591,0,0,1,.108.855Z" transform="translate(-809.727 -739.65)" fill="#4b6568" opacity="0.49" style="mix-blend-mode: multiply;isolation: isolate"/>
          <path id="Path_67" data-name="Path 67" d="M.033.264,12.538,0l-.033,1.549L0,1.814Z" transform="translate(58.147 4.14) rotate(38.085)" fill="#57d0dd"/>
          <path id="Path_68" data-name="Path 68" d="M.017.278,13.172,0l-.017.775L0,1.053Z" transform="matrix(0.787, 0.617, -0.617, 0.787, 61.104, 0.041)" fill="#57d0dd"/>
          <path id="Path_69" data-name="Path 69" d="M.017.278,13.173,0l-.017.774L0,1.052Z" transform="matrix(0.787, 0.617, -0.617, 0.787, 60.135, 1.224)" fill="#57d0dd"/>
          <path id="Path_70" data-name="Path 70" d="M.017.278,13.172,0l-.017.775L0,1.053Z" transform="translate(59.167 2.407) rotate(38.085)" fill="#57d0dd"/>
        </g>
        <path id="Path_41" data-name="Path 41" d="M786.589,797.144l-14.833-12.677a10.924,10.924,0,0,1-.907-15.95l3.243-3.443a12.274,12.274,0,0,1,16.744-.864l14.833,12.677a1.514,1.514,0,0,1,.125,2.21h0a1.513,1.513,0,0,0,.126,2.21l6.273,5.362a1.7,1.7,0,0,0,2.32-.12h0a1.7,1.7,0,0,1,2.32-.119L839.27,805.6a1.513,1.513,0,0,1,.125,2.21l-16.886,17.927a1.7,1.7,0,0,1-2.32.12l-22.435-19.175a1.513,1.513,0,0,1-.126-2.21h0a1.513,1.513,0,0,0-.126-2.21l-6.274-5.362a1.7,1.7,0,0,0-2.32.12h0A1.7,1.7,0,0,1,786.589,797.144Z" transform="translate(-702.972 -735.539)" fill="#427c86" opacity="0.85"/>
        <path id="Path_42" data-name="Path 42" d="M861.716,805.67l-22.435-19.175a1.7,1.7,0,0,0-2.32.119,1.7,1.7,0,0,1-2.32.12l-6.274-5.362a1.513,1.513,0,0,1-.125-2.21h0a1.514,1.514,0,0,0-.125-2.21l-14.834-12.677a12.1,12.1,0,0,0-6.867-2.844c5.461,6.475,21.825,26.747,21.825,37.171a25.614,25.614,0,0,1-3.342,12.164l17.737,15.16a1.7,1.7,0,0,0,2.32-.12l16.886-17.927A1.513,1.513,0,0,0,861.716,805.67Z" transform="translate(-725.418 -735.605)" fill="#427c86"/>
        <path id="Path_43" data-name="Path 43" d="M785.56,888.827c-1.032-10.544-17.126-37.685-20.269-44.168s8.121-42.058,8.121-42.058l-.18.012a9.167,9.167,0,0,1-2.8,4.361s-84.284,30.8-116.426,22.692c-13.412-3.382-20.779-9.726-22.415-17.179l-.351.024s5.484,20.948,0,25.664c-18.387,15.811-4.732,12.253-7.027,23.421-1.214,5.909-10.875,13.56-11.356,19.433-.186,2.261,5.645,5.7,5.633,7.782-.038,6.243,5.343,19.213,7.5,22.1,0,0-2.325,7.047-3.962,19.812s2.669,35.884,42.562,43.7,53.817-8.485,99.957-12.308c21.925-5.625,11.826-33.565,11.261-51.218C775.813,910.9,786.181,895.168,785.56,888.827Z" transform="translate(-612.856 -760.284)" fill="#fcb500"/>
        <path id="Path_44" data-name="Path 44" d="M798.729,802.8a6.751,6.751,0,0,1-.289.857,7.636,7.636,0,0,1-4.59,4.166c-13.222,4.673-85.188,29.285-114.32,21.94-13.412-3.382-20.779-9.726-22.415-17.179l-.351.024s-1.366,17.424,17,27.04c3.973,2.08,1.4.6,3.947,1.64,23.742,9.119,80.064-10.948,113.788-29.532a15.647,15.647,0,0,0,7.408-8.979l0-.012Z" transform="translate(-638.377 -760.385)" fill="#e09d00"/>
        <path id="Path_45" data-name="Path 45" d="M655.58,922.558a75.968,75.968,0,0,0-31.271,6.676,10.517,10.517,0,0,1-.094,4.272c-1.214,5.909-10.875,13.56-11.356,19.433-.186,2.261,5.645,5.7,5.633,7.782-.038,6.243,5.343,19.213,7.5,22.1,0,0-2.325,7.047-3.962,19.812s2.669,35.884,42.562,43.7c28.667,5.616,43.925-1.222,67.365-6.933C740.99,957.489,690.029,922.558,655.58,922.558Z" transform="translate(-612.856 -832.194)" fill="#fcbe21"/>
        <path id="Path_46" data-name="Path 46" d="M792.714,789.317c-27.2,17.742-87.993,37.521-116.392,27.9-2.546-.917.169.148-3.947-1.446-20.745-8.537-24.383-29.73-6.719-43.8-1.65,6.058-8.941,20.95-4.559,25.6,6.808,7.255,21.13,8.458,21.08,8.451l2.729.172C710.211,806.916,760.673,792.82,792.714,789.317Z" transform="translate(-636.987 -741.927)" fill="#fcb500"/>
      </g>
      <path id="Path_47" data-name="Path 47" d="M827.957,1136.336c1.092.078,19.464,6.815,33.758,2.338,6.81-2.134,13.061-3.387,10.31,2.6s-15.308,3.443-17.059,5.119,21.7,13.951,28.107,14.994-4.1,6.31-6.6,6.31-.5.957-3,3.351-8.557,1.826-11.5,2.394c-9.612,1.853-35.168-15.051-39.013-18.731S827.957,1136.336,827.957,1136.336Z" transform="translate(-642.169 -926.808)" fill="#ff7446"/>
      <path id="Path_48" data-name="Path 48" d="M466.1,847.776s10.167,10.946,15.984,22.441c5.871,11.6,38.479,68.623,42.082,68.623s84.086,25.087,84.086,25.087-5.63,11.134-5.63,23.581c0,0-86.527-13.4-93.03-13.4s-14-11.011-20.506-17.235-38.825-34.385-48.172-56.449S436.589,842.989,466.1,847.776Z" transform="translate(-418.083 -753.564)" fill="#1e5903"/>
      <path id="Path_49" data-name="Path 49" d="M537.362,772.65l10.418,44.208L507.019,803l7.974-30.207Z" transform="translate(-459.004 -708.793)" fill="#ff7446"/>
      <path id="Path_50" data-name="Path 50" d="M545.867,772.65,523.5,772.8l-1.853,7.019c6.4,6.208,14.083,11.208,20.346,12.608a26.567,26.567,0,0,0,8.589.229Z" transform="translate(-467.51 -708.793)" fill="#ff7f4c" opacity="0.68" style="mix-blend-mode: multiply;isolation: isolate"/>
      <path id="Path_51" data-name="Path 51" d="M510.185,666.536s6.985.061,15.5,5.4,16.291,20.224,16.291,20.224,3.9,9.453,4.407,15-20.005,14.527-30.186,13.268-23.518-12.282-26.915-22.341S505.645,665.974,510.185,666.536Z" transform="translate(-448.46 -645.176)" fill="#ff865e"/>
      <path id="Path_52" data-name="Path 52" d="M540.747,674.22a23.318,23.318,0,0,0-3.013-2.286c-8.51-5.337-15.5-5.4-15.5-5.4-2.151-.266-7.72,4.546-12.623,10.753l3.507-.22s11.732,3.08,23.319-.929A27.405,27.405,0,0,0,540.747,674.22Z" transform="translate(-460.513 -645.176)" fill="#ff7f4c" opacity="0.68" style="mix-blend-mode: multiply;isolation: isolate"/>
      <path id="Path_53" data-name="Path 53" d="M475.122,645.116a102.775,102.775,0,0,1,6.51,19.725,79.163,79.163,0,0,1,1.26,23.116c-8.518,4.186-22.213,3.791-33.887-10.7s1.547-26.349,4.5-28.531-1.651-2.983.422-8.714,5.722-2.122,9.7-6.106-6.447-12.309.946-18.815,17.03,6.073,17.03,6.073,4.08-12.464,11.535-5.362,7.761,12.106,1.672,19.833S475.122,645.116,475.122,645.116Z" transform="translate(-422.513 -613.223)" fill="#0d074b"/>
      <path id="Path_54" data-name="Path 54" d="M520.849,727.073s-9.237-4.276-9.237,3.207,3.161,11.491,7.735,9.621S520.849,727.073,520.849,727.073Z" transform="translate(-461.674 -680.743)" fill="#ff865e"/>
    </g>
    <g id="Group_18" data-name="Group 18" transform="translate(-1271.938 -160.542)">
      <path id="Path_6-2" data-name="Path 6" d="M713.282,1712.395c-3.905,14.557-7.536,29.1-7.536,29.1,18.133,5.34,20.648-5.733,19.532-8.4,1.372-5.987,6.835-14.943,6.835-14.943C712.584,1717.078,713.282,1712.395,713.282,1712.395Z" transform="translate(-574.57 -1272.132)" fill="#ff7446"/>
      <path id="Path_7-2" data-name="Path 7" d="M448.209,1677.944l-17.72,9.318,7.146,15.312,21.428-6.731A33.05,33.05,0,0,0,448.209,1677.944Z" transform="translate(-414.499 -1251.48)" fill="#ff7446"/>
      <path id="Path_8-2" data-name="Path 8" d="M703.184,1767.732a22.241,22.241,0,0,0-3.519,10.062,33.521,33.521,0,0,0,1.13,12.257s31.986,1.722,44.512-.5,13.64-4.323,13.327-7.719-17.31-2.377-22.394-6.455-12.17-12.827-15.178-11.4-2.417,6.881-6.484,7.225S705,1765.658,703.184,1767.732Z" transform="translate(-570.936 -1302.955)" fill="#09434c"/>
      <path id="Path_9-2" data-name="Path 9" d="M415.418,1688.647a24.865,24.865,0,0,0-11.065-.648,37.477,37.477,0,0,0-12.076,4.218s6.544,30.018,12.034,41.022,7.895,11.491,11.24,10.323-2.083-16.619.716-22.375,9.793-14.572,7.578-16.985-7.57-.453-8.969-4.124S417.98,1689.788,415.418,1688.647Z" transform="translate(-392.277 -1257.323)" fill="#09434c"/>
      <path id="Path_10-2" data-name="Path 10" d="M514.863,1239.971s14.191,92.663,14.191,104.153-70.22,52.038-70.22,52.038,6.21,23.963,16.713,28.369c3.665,1.537,83.982-49.457,88.332-59.131,4.989-11.095,18.669-89.671,18.669-89.671s30.694,44.181,29.346,53.286c-2.115,14.293-48.015,90.96-48.015,90.96s6.264,13.271,28.536,4.1c0,0,62.506-73.756,70.383-83.5,18.639-23.048-65.908-126.463-65.908-126.463Z" transform="translate(-430.982 -973.436)" fill="#453faf"/>
      <path id="Path_11-2" data-name="Path 11" d="M772.311,1391.489c0-15.414-40.816-69.315-40.816-69.315l-2.969,18.33s30.693,44.181,29.346,53.286c-2.115,14.293-48.015,90.96-48.015,90.96a13.08,13.08,0,0,0,5.335,5.184C737.666,1468.188,772.311,1405.414,772.311,1391.489Z" transform="translate(-576.962 -1038.21)" fill="#0d5965" opacity="0.32"/>
      <g id="Group_4-2" data-name="Group 4" transform="translate(83.881 255.078)" opacity="0.5">
        <path id="Path_12-2" data-name="Path 12" d="M632.028,1266.386a123.231,123.231,0,0,0-2.946-16.33l-36.354,11.458s1.893,12.36,4.3,28.613c7.418,3.776,14.6,6.265,18.671,5.492,7.058-1.34,16.36-11.6,16.36-29.245C632.053,1266.383,632.036,1266.382,632.028,1266.386Z" transform="translate(-592.727 -1250.056)" fill="#0d5965"/>
      </g>
      <path id="Path_13-2" data-name="Path 13" d="M542.715,1012.82C538,968.329,487.737,878.586,470.306,848.57c-8.222.548-15.48,3.163-19.575,9.461-14,21.544,3,112.981,18.506,139.79a97.571,97.571,0,0,0,19.172,23.686c9.13,8.219,30.378,19.915,38.574,18.417,6.8-1.242,15.759-10.755,15.759-27.117C542.74,1012.817,542.724,1012.816,542.715,1012.82Z" transform="translate(-423.242 -754.304)" fill="#1e5903"/>
      <path id="Path_14-2" data-name="Path 14" d="M636.217,1002.439c-.194-.326-70.7-138.313-86.037-144.581-.3-.13-1.123-.457-1.577-.635-10.715-4.188-24.773-8.1-36.233-8.8a56.423,56.423,0,0,0-7.626-.023c17.431,30.016,67.7,119.759,72.409,164.25C595.032,1004.277,616.8,997.45,636.217,1002.439Z" transform="translate(-457.68 -754.134)" fill="#fff"/>
      <g id="Group_5-2" data-name="Group 5" transform="translate(89.489 173.982)" opacity="0.5">
        <path id="Path_15-2" data-name="Path 15" d="M606.127,1047.592c11.016,23.046,21.037,46.823,26.351,66.358,34.391,5.283,43.28,2.206,57.951-1.219-7.154-13.766-12.268-23.329-14.236-27.045Z" transform="translate(-606.127 -1047.592)" fill="#531c2e"/>
      </g>
      <g id="Group_6-2" data-name="Group 6" transform="translate(22.353 137.482)">
        <path id="Path_16-2" data-name="Path 16" d="M514.989,1057.278c5.192,1.219,13.969,1.823,24.191,2.045-5.314-19.535-15.335-43.311-26.351-66.358l-67.136-36.5c.011.162.021.323.032.483a113.458,113.458,0,0,0,34.169,73.606C493.581,1043.976,507.106,1055.427,514.989,1057.278Z" transform="translate(-445.693 -956.464)" fill="#154001"/>
      </g>
      <g id="Group_9-2" data-name="Group 9" transform="translate(92.304 33.537)">
        <path id="Path_17-2" data-name="Path 17" d="M777.275,885.459c-1.033-10.544-8.84-34.318-11.984-40.8s8.121-42.058,8.121-42.058l-142.169,9.911s5.484,20.948,0,25.664c-18.387,15.811-4.732,12.253-7.027,23.421-1.214,5.909-10.875,13.56-11.356,19.433-.186,2.261,5.645,5.7,5.633,7.782-.038,6.243,5.343,19.213,7.5,22.1l149.818-.014S777.9,891.8,777.275,885.459Z" transform="translate(-612.856 -760.284)" fill="#3f19ff"/>
        <path id="Path_18-2" data-name="Path 18" d="M795.987,764.149S711.7,795.175,679.561,787.01s-29.57-33.475,3.429-50.213S817.558,743.6,795.987,764.149Z" transform="translate(-638.408 -717.427)" fill="#db8a00"/>
        <path id="Path_19-2" data-name="Path 19" d="M869.654,722.675V696.952h8.571v25.723a9.341,9.341,0,0,0,4.391,7.62,11.348,11.348,0,0,1,5.262,9.32v50.09H860v-50.09a11.348,11.348,0,0,1,5.263-9.32A9.342,9.342,0,0,0,869.654,722.675Z" transform="translate(-756.579 -696.952)" fill="#006837"/>
        <path id="Path_20-2" data-name="Path 20" d="M746.572,743.568a1.735,1.735,0,0,1-1.472-1.4l-.536-3.031-10.4,1.711.532,3.006a1.673,1.673,0,0,1-.908,1.786,10.924,10.924,0,0,0-6,11.625l12.07,68.233a11.5,11.5,0,0,0,13.31,9.05l5.689-.922a11.11,11.11,0,0,0,9.456-12.74l-12.07-68.233A11.327,11.327,0,0,0,746.572,743.568Z" transform="translate(-679.596 -722.24)" fill="#97f0ff" opacity="0.57"/>
        <path id="Path_21-2" data-name="Path 21" d="M742.067,746.152a1.734,1.734,0,0,1-1.472-1.4l-.657-3.715-5.775.95.532,3.007a1.674,1.674,0,0,1-.908,1.786,10.924,10.924,0,0,0-6,11.625l12.07,68.233a11.5,11.5,0,0,0,13.31,9.051l5.07-.822a10.9,10.9,0,0,0,5.569-11.4l-12.069-68.232A11.326,11.326,0,0,0,742.067,746.152Z" transform="translate(-679.596 -723.379)" fill="#fff" opacity="0.57"/>
        <g id="Group_7-2" data-name="Group 7" transform="translate(24.094 39.003)">
          <path id="Path_22-2" data-name="Path 22" d="M702.269,813.52l-13.845,33.969-17.991-4.04.282-2.592,3.706-34.081,13.12,3.178Z" transform="translate(-670.433 -801.789)" fill="#9b0a3a"/>
          <path id="Path_23-2" data-name="Path 23" d="M701.92,823.288l-13.572,33.963-17.915-3.9,18.067,4.178,14.119-33.977Z" transform="translate(-670.433 -811.688)" fill="#44051d"/>
          <path id="Path_24-2" data-name="Path 24" d="M671.106,840.857l3.706-34.081,13.12,3.178C686.346,821.617,682.048,841.27,671.106,840.857Z" transform="translate(-670.824 -801.79)" fill="#bf1657"/>
          <path id="Path_25-2" data-name="Path 25" d="M710.568,800.91l-.443,1.8-25.713-5.774.443-1.805a1.1,1.1,0,0,1,1.314-.78l23.587,5.3A1.044,1.044,0,0,1,710.568,800.91Z" transform="translate(-678.563 -794.327)" fill="#f4e4a2"/>
          <path id="Path_26-2" data-name="Path 26" d="M724.242,803.668l-.443,1.8-12.874-2.892a4.211,4.211,0,0,0,.154-1.2c-.009-.544-1.5-1.526-3.153-2.458l15.5,3.482A1.045,1.045,0,0,1,724.242,803.668Z" transform="translate(-692.237 -797.085)" fill="#efba50"/>
          <path id="Path_27-2" data-name="Path 27" d="M705.987,811.093l-31.184-7,2.746-2.315.243-.207,27.234,6.116Z" transform="translate(-672.975 -798.668)" fill="#f4e4a2"/>
          <path id="Path_28-2" data-name="Path 28" d="M709.8,811.093l-8.421-1.891c-.409-2.335-16.8-6.609-20.017-7.427l.243-.207,27.234,6.116Z" transform="translate(-676.79 -798.667)" fill="#efba50"/>
          <path id="Path_71" data-name="Path 71" d="M.009.305,31.968,0l-.009.929L0,1.234Z" transform="matrix(0.974, 0.228, -0.228, 0.974, 1.889, 5.123)" fill="#f4c87a"/>
          <path id="Path_29-2" data-name="Path 29" d="M681.379,798.315l27.356,6.144a.656.656,0,0,1,.511.789v0a.688.688,0,0,1-.824.489l-27.357-6.143a.655.655,0,0,1-.51-.789v0A.687.687,0,0,1,681.379,798.315Z" transform="translate(-676.308 -796.707)" fill="#f4e4a2"/>
          <path id="Path_30-2" data-name="Path 30" d="M702.269,813.52l-13.845,33.969-17.991-4.04.282-2.592,3.706-34.081,13.12,3.178Z" transform="translate(-670.433 -801.789)" fill="#fc7a22"/>
          <path id="Path_31-2" data-name="Path 31" d="M701.92,823.288l-13.572,33.963-17.915-3.9,18.067,4.178,14.119-33.977Z" transform="translate(-670.433 -811.688)" fill="#44051d"/>
          <path id="Path_32-2" data-name="Path 32" d="M686.482,831.47l3.705-34.08,13.12,3.178C701.722,812.23,697.425,831.884,686.482,831.47Z" transform="translate(-679.766 -796.163)" fill="#fc8a3d"/>
          <path id="Path_33-2" data-name="Path 33" d="M710.568,800.91l-.443,1.8-25.713-5.774.443-1.805a1.1,1.1,0,0,1,1.314-.78l23.587,5.3A1.044,1.044,0,0,1,710.568,800.91Z" transform="translate(-678.563 -794.327)" fill="#f4e4a2"/>
          <path id="Path_34-2" data-name="Path 34" d="M705.987,811.093l-31.184-7,2.746-2.315.243-.207,27.234,6.116Z" transform="translate(-672.975 -798.668)" fill="#f4e4a2"/>
          <path id="Path_72" data-name="Path 72" d="M.009.305,31.968,0l-.009.929L0,1.234Z" transform="matrix(0.974, 0.228, -0.228, 0.974, 1.889, 5.123)" fill="#f4c87a"/>
          <path id="Path_35-2" data-name="Path 35" d="M681.379,798.315l27.356,6.144a.656.656,0,0,1,.511.789v0a.688.688,0,0,1-.824.489l-27.357-6.143a.655.655,0,0,1-.51-.789v0A.687.687,0,0,1,681.379,798.315Z" transform="translate(-676.308 -796.707)" fill="#f4e4a2"/>
        </g>
        <g id="Group_8-2" data-name="Group 8" transform="translate(45.824 15.066)">
          <path id="Path_36-2" data-name="Path 36" d="M773.1,782.834a5.4,5.4,0,0,1,1.994-2.207,13.029,13.029,0,0,0,2.281-.913,17.523,17.523,0,0,0,5.492-5.021,10.154,10.154,0,0,0,1.284-8.792,6.693,6.693,0,0,1,.779-5.577l4.284-6.673-7.457-5.594-5.745,5.576a7.274,7.274,0,0,1-4.36,1.438,15.07,15.07,0,0,0-12.177,7.231,17.815,17.815,0,0,0-1.329,2.988,11.647,11.647,0,0,0-.381,2.338A5.317,5.317,0,0,1,756,770.01a3.389,3.389,0,0,1-3.2.791,4.317,4.317,0,0,0-4.507,1.376l-25.038,30.58a3.91,3.91,0,0,0,.716,5.65L741.8,821.778a4.332,4.332,0,0,0,5.9-.685l25.038-30.58a3.887,3.887,0,0,0,.319-4.518A3.028,3.028,0,0,1,773.1,782.834Z" transform="translate(-722.361 -742.654)" fill="#97f0ff"/>
          <path id="Path_37-2" data-name="Path 37" d="M773.1,782.834a5.4,5.4,0,0,1,1.994-2.207,13.029,13.029,0,0,0,2.281-.913,17.523,17.523,0,0,0,5.492-5.021,10.154,10.154,0,0,0,1.284-8.792,6.693,6.693,0,0,1,.779-5.577l4.284-6.673-7.457-5.594-5.745,5.576a7.274,7.274,0,0,1-4.36,1.438,15.07,15.07,0,0,0-12.177,7.231,17.815,17.815,0,0,0-1.329,2.988,11.647,11.647,0,0,0-.381,2.338A5.317,5.317,0,0,1,756,770.01a3.389,3.389,0,0,1-3.2.791,4.317,4.317,0,0,0-4.507,1.376l-25.038,30.58a3.91,3.91,0,0,0,.716,5.65L741.8,821.778a4.332,4.332,0,0,0,5.9-.685l25.038-30.58a3.887,3.887,0,0,0,.319-4.518A3.028,3.028,0,0,1,773.1,782.834Z" transform="translate(-722.361 -742.654)" fill="#97f0ff"/>
          <path id="Path_38-2" data-name="Path 38" d="M794.539,789.9a3.028,3.028,0,0,1,.038-3.161,5.4,5.4,0,0,1,1.994-2.207,13.006,13.006,0,0,0,2.281-.913,17.518,17.518,0,0,0,5.492-5.021,10.155,10.155,0,0,0,1.283-8.792,6.692,6.692,0,0,1,.779-5.577l4.284-6.673-3.98-2.986-4.284,6.672a6.692,6.692,0,0,0-.779,5.577,10.155,10.155,0,0,1-1.283,8.792,17.523,17.523,0,0,1-5.493,5.021,12.944,12.944,0,0,1-2.281.913,5.39,5.39,0,0,0-1.994,2.208,3.029,3.029,0,0,0-.039,3.161,3.885,3.885,0,0,1-.319,4.518L765.2,822.011a4.332,4.332,0,0,1-5.9.685l3.98,2.986a4.332,4.332,0,0,0,5.9-.685l25.038-30.58A3.887,3.887,0,0,0,794.539,789.9Z" transform="translate(-743.843 -746.557)" fill="#4b6568" opacity="0.49" style="mix-blend-mode: multiply;isolation: isolate"/>
          <path id="Path_39-2" data-name="Path 39" d="M874.377,742.3l-3.386,4.136-10.005-7.5,3.386-4.136a.655.655,0,0,1,.893-.1l9,6.755A.591.591,0,0,1,874.377,742.3Z" transform="translate(-802.977 -734.566)" fill="#97f0ff"/>
          <path id="Path_40-2" data-name="Path 40" d="M877.744,751.524l-5.149-3.862,3.778-4.615,4.648,3.486a.591.591,0,0,1,.108.855Z" transform="translate(-809.727 -739.65)" fill="#4b6568" opacity="0.49" style="mix-blend-mode: multiply;isolation: isolate"/>
          <path id="Path_73" data-name="Path 73" d="M.033.264,12.538,0l-.033,1.549L0,1.814Z" transform="translate(58.147 4.14) rotate(38.085)" fill="#57d0dd"/>
          <path id="Path_74" data-name="Path 74" d="M.017.278,13.172,0l-.017.775L0,1.053Z" transform="matrix(0.787, 0.617, -0.617, 0.787, 61.104, 0.041)" fill="#57d0dd"/>
          <path id="Path_75" data-name="Path 75" d="M.017.278,13.173,0l-.017.774L0,1.052Z" transform="matrix(0.787, 0.617, -0.617, 0.787, 60.135, 1.224)" fill="#57d0dd"/>
          <path id="Path_76" data-name="Path 76" d="M.017.278,13.172,0l-.017.775L0,1.053Z" transform="translate(59.167 2.407) rotate(38.085)" fill="#57d0dd"/>
        </g>
        <path id="Path_41-2" data-name="Path 41" d="M786.589,797.144l-14.833-12.677a10.924,10.924,0,0,1-.907-15.95l3.243-3.443a12.274,12.274,0,0,1,16.744-.864l14.833,12.677a1.514,1.514,0,0,1,.125,2.21h0a1.513,1.513,0,0,0,.126,2.21l6.273,5.362a1.7,1.7,0,0,0,2.32-.12h0a1.7,1.7,0,0,1,2.32-.119L839.27,805.6a1.513,1.513,0,0,1,.125,2.21l-16.886,17.927a1.7,1.7,0,0,1-2.32.12l-22.435-19.175a1.513,1.513,0,0,1-.126-2.21h0a1.513,1.513,0,0,0-.126-2.21l-6.274-5.362a1.7,1.7,0,0,0-2.32.12h0A1.7,1.7,0,0,1,786.589,797.144Z" transform="translate(-702.972 -735.539)" fill="#427c86" opacity="0.85"/>
        <path id="Path_42-2" data-name="Path 42" d="M861.716,805.67l-22.435-19.175a1.7,1.7,0,0,0-2.32.119,1.7,1.7,0,0,1-2.32.12l-6.274-5.362a1.513,1.513,0,0,1-.125-2.21h0a1.514,1.514,0,0,0-.125-2.21l-14.834-12.677a12.1,12.1,0,0,0-6.867-2.844c5.461,6.475,21.825,26.747,21.825,37.171a25.614,25.614,0,0,1-3.342,12.164l17.737,15.16a1.7,1.7,0,0,0,2.32-.12l16.886-17.927A1.513,1.513,0,0,0,861.716,805.67Z" transform="translate(-725.418 -735.605)" fill="#427c86"/>
        <path id="Path_43-2" data-name="Path 43" d="M785.56,888.827c-1.032-10.544-17.126-37.685-20.269-44.168s8.121-42.058,8.121-42.058l-.18.012a9.167,9.167,0,0,1-2.8,4.361s-84.284,30.8-116.426,22.692c-13.412-3.382-20.779-9.726-22.415-17.179l-.351.024s5.484,20.948,0,25.664c-18.387,15.811-4.732,12.253-7.027,23.421-1.214,5.909-10.875,13.56-11.356,19.433-.186,2.261,5.645,5.7,5.633,7.782-.038,6.243,5.343,19.213,7.5,22.1,0,0-2.325,7.047-3.962,19.812s2.669,35.884,42.562,43.7,53.817-8.485,99.957-12.308c21.925-5.625,11.826-33.565,11.261-51.218C775.813,910.9,786.181,895.168,785.56,888.827Z" transform="translate(-612.856 -760.284)" fill="#fcb500"/>
        <path id="Path_44-2" data-name="Path 44" d="M798.729,802.8a6.751,6.751,0,0,1-.289.857,7.636,7.636,0,0,1-4.59,4.166c-13.222,4.673-85.188,29.285-114.32,21.94-13.412-3.382-20.779-9.726-22.415-17.179l-.351.024s-1.366,17.424,17,27.04c3.973,2.08,1.4.6,3.947,1.64,23.742,9.119,80.064-10.948,113.788-29.532a15.647,15.647,0,0,0,7.408-8.979l0-.012Z" transform="translate(-638.377 -760.385)" fill="#e09d00"/>
        <path id="Path_45-2" data-name="Path 45" d="M655.58,922.558a75.968,75.968,0,0,0-31.271,6.676,10.517,10.517,0,0,1-.094,4.272c-1.214,5.909-10.875,13.56-11.356,19.433-.186,2.261,5.645,5.7,5.633,7.782-.038,6.243,5.343,19.213,7.5,22.1,0,0-2.325,7.047-3.962,19.812s2.669,35.884,42.562,43.7c28.667,5.616,43.925-1.222,67.365-6.933C740.99,957.489,690.029,922.558,655.58,922.558Z" transform="translate(-612.856 -832.194)" fill="#fcbe21"/>
        <path id="Path_46-2" data-name="Path 46" d="M792.714,789.317c-27.2,17.742-87.993,37.521-116.392,27.9-2.546-.917.169.148-3.947-1.446-20.745-8.537-24.383-29.73-6.719-43.8-1.65,6.058-8.941,20.95-4.559,25.6,6.808,7.255,21.13,8.458,21.08,8.451l2.729.172C710.211,806.916,760.673,792.82,792.714,789.317Z" transform="translate(-636.987 -741.927)" fill="#fcb500"/>
      </g>
      <path id="Path_47-2" data-name="Path 47" d="M827.957,1136.336c1.092.078,19.464,6.815,33.758,2.338,6.81-2.134,13.061-3.387,10.31,2.6s-15.308,3.443-17.059,5.119,21.7,13.951,28.107,14.994-4.1,6.31-6.6,6.31-.5.957-3,3.351-8.557,1.826-11.5,2.394c-9.612,1.853-35.168-15.051-39.013-18.731S827.957,1136.336,827.957,1136.336Z" transform="translate(-642.169 -926.808)" fill="#ff7446"/>
      <path id="Path_48-2" data-name="Path 48" d="M466.1,847.776s10.167,10.946,15.984,22.441c5.871,11.6,38.479,68.623,42.082,68.623s84.086,25.087,84.086,25.087-5.63,11.134-5.63,23.581c0,0-86.527-13.4-93.03-13.4s-14-11.011-20.506-17.235-38.825-34.385-48.172-56.449S436.589,842.989,466.1,847.776Z" transform="translate(-418.083 -753.564)" fill="#1e5903"/>
      <path id="Path_49-2" data-name="Path 49" d="M537.362,772.65l10.418,44.208L507.019,803l7.974-30.207Z" transform="translate(-459.004 -708.793)" fill="#ff7446"/>
      <path id="Path_50-2" data-name="Path 50" d="M545.867,772.65,523.5,772.8l-1.853,7.019c6.4,6.208,14.083,11.208,20.346,12.608a26.567,26.567,0,0,0,8.589.229Z" transform="translate(-467.51 -708.793)" fill="#ff7f4c" opacity="0.68" style="mix-blend-mode: multiply;isolation: isolate"/>
      <path id="Path_51-2" data-name="Path 51" d="M510.185,666.536s6.985.061,15.5,5.4,16.291,20.224,16.291,20.224,3.9,9.453,4.407,15-20.005,14.527-30.186,13.268-23.518-12.282-26.915-22.341S505.645,665.974,510.185,666.536Z" transform="translate(-448.46 -645.176)" fill="#ff865e"/>
      <path id="Path_52-2" data-name="Path 52" d="M540.747,674.22a23.318,23.318,0,0,0-3.013-2.286c-8.51-5.337-15.5-5.4-15.5-5.4-2.151-.266-7.72,4.546-12.623,10.753l3.507-.22s11.732,3.08,23.319-.929A27.405,27.405,0,0,0,540.747,674.22Z" transform="translate(-460.513 -645.176)" fill="#ff7f4c" opacity="0.68" style="mix-blend-mode: multiply;isolation: isolate"/>
      <path id="Path_53-2" data-name="Path 53" d="M475.122,645.116a102.775,102.775,0,0,1,6.51,19.725,79.163,79.163,0,0,1,1.26,23.116c-8.518,4.186-22.213,3.791-33.887-10.7s1.547-26.349,4.5-28.531-1.651-2.983.422-8.714,5.722-2.122,9.7-6.106-6.447-12.309.946-18.815,17.03,6.073,17.03,6.073,4.08-12.464,11.535-5.362,7.761,12.106,1.672,19.833S475.122,645.116,475.122,645.116Z" transform="translate(-422.513 -613.223)" fill="#0d074b"/>
      <path id="Path_54-2" data-name="Path 54" d="M520.849,727.073s-9.237-4.276-9.237,3.207,3.161,11.491,7.735,9.621S520.849,727.073,520.849,727.073Z" transform="translate(-461.674 -680.743)" fill="#ff865e"/>
    </g>
  </g>
</svg>
