<svg id="Group_41" data-name="Group 41" xmlns="http://www.w3.org/2000/svg" xmlns:xlink="http://www.w3.org/1999/xlink" width="1920" height="957.985" viewBox="0 0 1920 957.985">
  <defs>
    <linearGradient id="linear-gradient" y1="0.5" x2="1" y2="0.5" gradientUnits="objectBoundingBox">
      <stop offset="0" stop-color="#bce3f1"/>
      <stop offset="1" stop-color="#d0f7ff"/>
    </linearGradient>
    <linearGradient id="linear-gradient-2" y1="0.5" x2="1" y2="0.5" gradientUnits="objectBoundingBox">
      <stop offset="0" stop-color="#f2f2f2"/>
      <stop offset="1" stop-color="#c9d955"/>
    </linearGradient>
    <clipPath id="clip-path">
      <path id="SVGID" d="M420.707,1075.416C114.337,965.329,403.472,894.11,242.094,704.976,27.713,453.722,66.237,136.125,785.118,135.8c473.236-.214,873.609,186.723,955.234,407.632,121.95,330.054-87.109,531.983-87.109,531.983Z" transform="translate(-127.84 -135.8)" fill="url(#linear-gradient)"/>
    </clipPath>
  </defs>
  <g id="Group_3" data-name="Group 3">
    <path id="SVGID-2" data-name="SVGID" d="M468.485,1075.416C112.134,965.329,448.437,894.11,260.733,704.976,11.378,453.722,56.187,136.125,892.344,135.8c550.438-.214,1016.127,186.723,1111.068,407.632,141.845,330.054-101.32,531.983-101.32,531.983Z" transform="translate(-127.84 -135.8)" fill="url(#linear-gradient-2)"/>
    <g id="Group_2" data-name="Group 2" transform="translate(0)" clip-path="url(#clip-path)">
      <g id="Group_1" data-name="Group 1" transform="translate(123.094 85.968)">
        <path id="Path_1" data-name="Path 1" d="M1939.516,671.908c-17.759-4.19-38.881-6.633-61.355-6.768-20.841-17.7-69.433-29.516-124.657-29.516-33.143,0-64.567,4.387-88.8,11.907-26.966-21.995-88.9-37.367-159.082-37.367-46.1,0-89.824,6.5-122.233,17.994-4.639-.263-9.326-.4-14.019-.4-50.219,0-91.072,14.581-91.072,32.5,0,4.024,2.089,7.961,6.065,11.641Z" transform="translate(-1096.335 -339.095)" fill="#fffff1" style="mix-blend-mode: screen;isolation: isolate"/>
        <path id="Path_2" data-name="Path 2" d="M1008.6,336.03a195.923,195.923,0,0,0-43.013-4.745c-14.611-12.409-48.675-20.691-87.39-20.691-23.233,0-45.264,3.075-62.251,8.348-18.905-15.42-62.326-26.2-111.523-26.2-32.318,0-62.971,4.553-85.69,12.614-3.253-.184-6.538-.277-9.829-.277-35.2,0-63.844,10.222-63.844,22.786,0,2.822,1.465,5.581,4.251,8.161Z" transform="translate(-264.261 -292.746)" fill="#fffff1" style="mix-blend-mode: screen;isolation: isolate"/>
        <path id="Path_3" data-name="Path 3" d="M1960.728,1069.62a235.208,235.208,0,0,0-51.649-5.7c-17.544-14.9-58.449-24.847-104.937-24.847-27.9,0-54.353,3.694-74.751,10.024-22.7-18.516-74.84-31.456-133.916-31.456-38.806,0-75.614,5.468-102.9,15.147-3.905-.221-7.852-.332-11.8-.332-42.273,0-76.664,12.274-76.664,27.361,0,3.388,1.76,6.7,5.105,9.8Z" transform="translate(-446.051 -624.579)" fill="#fcfde0" style="mix-blend-mode: screen;isolation: isolate"/>
        <path id="Path_4" data-name="Path 4" d="M555.658,1164.411a127.015,127.015,0,0,0-27.9-3.077c-9.477-8.049-31.572-13.421-56.683-13.421-15.07,0-29.359,1.994-40.378,5.414-12.262-10-40.426-16.992-72.337-16.992-20.962,0-40.844,2.954-55.581,8.182-2.11-.119-4.241-.18-6.375-.18-22.835,0-41.411,6.631-41.411,14.78a7.351,7.351,0,0,0,2.757,5.294Z" transform="translate(-254.996 -674.256)" fill="ivory" style="mix-blend-mode: screen;isolation: isolate"/>
        <path id="Path_5" data-name="Path 5" d="M1089.377,1559.665a127.017,127.017,0,0,1,27.9-3.078c9.476-8.049,31.572-13.421,56.682-13.421,15.07,0,29.359,1.994,40.378,5.414,12.262-10,40.427-16.991,72.338-16.991,20.961,0,40.842,2.953,55.579,8.182,2.11-.119,4.241-.18,6.376-.18,22.834,0,41.41,6.63,41.41,14.78a7.353,7.353,0,0,1-2.758,5.294Z" transform="translate(9.354 -1288.595)" fill="#eaefc1" style="mix-blend-mode: screen;isolation: isolate"/>
      </g>
    </g>
  </g>
  <path id="Rectangle_4" data-name="Rectangle 4" d="M9.184,0h1898.5a9.184,9.184,0,0,1,9.184,9.184v0a9.184,9.184,0,0,1-9.184,9.184H9.184A9.184,9.184,0,0,1,0,9.184v0A9.184,9.184,0,0,1,9.184,0Z" transform="translate(1920 957.985) rotate(-180)" fill="#20490d"/>
</svg>
